  0
SECTION
  2
HEADER
  9
$ACADVER
  1
AC1015
  9
$ACADMAINTVER
 70
     6
  9
$DWGCODEPAGE
  3
ANSI_1252
  9
$INSBASE
 10
0.0
 20
0.0
 30
0.0
  9
$EXTMIN
 10
0.0
 20
0.0
 30
0.0
  9
$EXTMAX
 10
297.0
 20
210.0
 30
0.0
  9
$LIMMIN
 10
0.0
 20
0.0
  9
$LIMMAX
 10
297.0
 20
210.0
  9
$ORTHOMODE
 70
     0
  9
$REGENMODE
 70
     1
  9
$FILLMODE
 70
     1
  9
$QTEXTMODE
 70
     0
  9
$MIRRTEXT
 70
     1
  9
$LTSCALE
 40
1.0
  9
$ATTMODE
 70
     1
  9
$TEXTSIZE
 40
3.5
  9
$TRACEWID
 40
1.0
  9
$TEXTSTYLE
  7
Standard
  9
$CLAYER
  8
0
  9
$CELTYPE
  6
ByLayer
  9
$CECOLOR
 62
   256
  9
$CELTSCALE
 40
1.0
  9
$DISPSILH
 70
     0
  9
$DIMSCALE
 40
1.0
  9
$DIMASZ
 40
3.302
  9
$DIMEXO
 40
1.0
  9
$DIMDLI
 40
3.75
  9
$DIMRND
 40
0.0
  9
$DIMDLE
 40
0.0
  9
$DIMEXE
 40
1.0
  9
$DIMTP
 40
0.0
  9
$DIMTM
 40
0.0
  9
$DIMTXT
 40
3.0
  9
$DIMCEN
 40
2.5
  9
$DIMTSZ
 40
0.0
  9
$DIMTOL
 70
     0
  9
$DIMLIM
 70
     0
  9
$DIMTIH
 70
     1
  9
$DIMTOH
 70
     1
  9
$DIMSE1
 70
     0
  9
$DIMSE2
 70
     0
  9
$DIMTAD
 70
     1
  9
$DIMZIN
 70
     1
  9
$DIMBLK
  1

  9
$DIMASO
 70
     1
  9
$DIMSHO
 70
     1
  9
$DIMPOST
  1

  9
$DIMAPOST
  1

  9
$DIMALT
 70
     0
  9
$DIMALTD
 70
     3
  9
$DIMALTF
 40
0.0393700787
  9
$DIMLFAC
 40
10.0
  9
$DIMTOFL
 70
     1
  9
$DIMTVP
 40
0.0
  9
$DIMTIX
 70
     0
  9
$DIMSOXD
 70
     0
  9
$DIMSAH
 70
     0
  9
$DIMBLK1
  1

  9
$DIMBLK2
  1

  9
$DIMSTYLE
  2
ISO-25
  9
$DIMCLRD
 70
     0
  9
$DIMCLRE
 70
     0
  9
$DIMCLRT
 70
     0
  9
$DIMTFAC
 40
1.0
  9
$DIMGAP
 40
1.524
  9
$DIMJUST
 70
     0
  9
$DIMSD1
 70
     0
  9
$DIMSD2
 70
     0
  9
$DIMTOLJ
 70
     0
  9
$DIMTZIN
 70
     1
  9
$DIMALTZ
 70
     0
  9
$DIMALTTZ
 70
     0
  9
$DIMUPT
 70
     0
  9
$DIMDEC
 70
     2
  9
$DIMTDEC
 70
     2
  9
$DIMALTU
 70
     2
  9
$DIMALTTD
 70
     3
  9
$DIMTXSTY
  7
Standard
  9
$DIMAUNIT
 70
     0
  9
$DIMADEC
 70
     2
  9
$DIMALTRND
 40
0.0
  9
$DIMAZIN
 70
     0
  9
$DIMDSEP
 70
    44
  9
$DIMATFIT
 70
     3
  9
$DIMFRAC
 70
     0
  9
$DIMLDRBLK
  1

  9
$DIMLUNIT
 70
     2
  9
$DIMLWD
 70
    -2
  9
$DIMLWE
 70
    -2
  9
$DIMTMOVE
 70
     0
  9
$LUNITS
 70
     2
  9
$LUPREC
 70
     2
  9
$SKETCHINC
 40
1.0
  9
$FILLETRAD
 40
10.0
  9
$AUNITS
 70
     0
  9
$AUPREC
 70
     2
  9
$MENU
  1
.
  9
$ELEVATION
 40
0.0
  9
$PELEVATION
 40
0.0
  9
$THICKNESS
 40
0.0
  9
$LIMCHECK
 70
     0
  9
$CHAMFERA
 40
0.0
  9
$CHAMFERB
 40
0.0
  9
$CHAMFERC
 40
0.0
  9
$CHAMFERD
 40
0.0
  9
$SKPOLY
 70
     0
  9
$TDCREATE
 40
2459863.973604109
  9
$TDUCREATE
 40
2459863.931937442
  9
$TDUPDATE
 40
2459863.9736086
  9
$TDUUPDATE
 40
2459863.931941933
  9
$TDINDWG
 40
0.0000000116
  9
$TDUSRTIMER
 40
0.0000000116
  9
$USRTIMER
 70
     1
  9
$ANGBASE
 50
0.0
  9
$ANGDIR
 70
     0
  9
$PDMODE
 70
     0
  9
$PDSIZE
 40
-1.0
  9
$PLINEWID
 40
0.0
  9
$SPLFRAME
 70
     0
  9
$SPLINETYPE
 70
     6
  9
$SPLINESEGS
 70
     8
  9
$HANDSEED
  5
28A
  9
$SURFTAB1
 70
     6
  9
$SURFTAB2
 70
     6
  9
$SURFTYPE
 70
     6
  9
$SURFU
 70
     6
  9
$SURFV
 70
     6
  9
$UCSBASE
  2

  9
$UCSNAME
  2

  9
$UCSORG
 10
0.0
 20
0.0
 30
0.0
  9
$UCSXDIR
 10
1.0
 20
0.0
 30
0.0
  9
$UCSYDIR
 10
0.0
 20
1.0
 30
0.0
  9
$UCSORTHOREF
  2

  9
$UCSORTHOVIEW
 70
     0
  9
$UCSORGTOP
 10
0.0
 20
0.0
 30
0.0
  9
$UCSORGBOTTOM
 10
0.0
 20
0.0
 30
0.0
  9
$UCSORGLEFT
 10
0.0
 20
0.0
 30
0.0
  9
$UCSORGRIGHT
 10
0.0
 20
0.0
 30
0.0
  9
$UCSORGFRONT
 10
0.0
 20
0.0
 30
0.0
  9
$UCSORGBACK
 10
0.0
 20
0.0
 30
0.0
  9
$PUCSBASE
  2

  9
$PUCSNAME
  2

  9
$PUCSORG
 10
0.0
 20
0.0
 30
0.0
  9
$PUCSXDIR
 10
1.0
 20
0.0
 30
0.0
  9
$PUCSYDIR
 10
0.0
 20
1.0
 30
0.0
  9
$PUCSORTHOREF
  2

  9
$PUCSORTHOVIEW
 70
     0
  9
$PUCSORGTOP
 10
0.0
 20
0.0
 30
0.0
  9
$PUCSORGBOTTOM
 10
0.0
 20
0.0
 30
0.0
  9
$PUCSORGLEFT
 10
0.0
 20
0.0
 30
0.0
  9
$PUCSORGRIGHT
 10
0.0
 20
0.0
 30
0.0
  9
$PUCSORGFRONT
 10
0.0
 20
0.0
 30
0.0
  9
$PUCSORGBACK
 10
0.0
 20
0.0
 30
0.0
  9
$USERI1
 70
     0
  9
$USERI2
 70
     0
  9
$USERI3
 70
     0
  9
$USERI4
 70
     0
  9
$USERI5
 70
     0
  9
$USERR1
 40
0.0
  9
$USERR2
 40
0.0
  9
$USERR3
 40
0.0
  9
$USERR4
 40
0.0
  9
$USERR5
 40
0.0
  9
$WORLDVIEW
 70
     1
  9
$SHADEDGE
 70
     3
  9
$SHADEDIF
 70
    70
  9
$TILEMODE
 70
     1
  9
$MAXACTVP
 70
    64
  9
$PINSBASE
 10
0.0
 20
0.0
 30
0.0
  9
$PLIMCHECK
 70
     0
  9
$PEXTMIN
 10
1.0000000000E+20
 20
1.0000000000E+20
 30
1.0000000000E+20
  9
$PEXTMAX
 10
-1.0000000000E+20
 20
-1.0000000000E+20
 30
-1.0000000000E+20
  9
$PLIMMIN
 10
0.0
 20
0.0
  9
$PLIMMAX
 10
420.0
 20
297.0
  9
$UNITMODE
 70
     0
  9
$VISRETAIN
 70
     1
  9
$PLINEGEN
 70
     0
  9
$PSLTSCALE
 70
     1
  9
$TREEDEPTH
 70
  3020
  9
$CMLSTYLE
  2
Standard
  9
$CMLJUST
 70
     0
  9
$CMLSCALE
 40
20.0
  9
$PROXYGRAPHICS
 70
     1
  9
$MEASUREMENT
 70
     1
  9
$CELWEIGHT
370
    -1
  9
$ENDCAPS
280
     0
  9
$JOINSTYLE
280
     0
  9
$LWDISPLAY
290
     1
  9
$INSUNITS
 70
     4
  9
$HYPERLINKBASE
  1

  9
$STYLESHEET
  1

  9
$XEDIT
290
     1
  9
$CEPSNTYPE
380
     0
  9
$PSTYLEMODE
290
     1
  9
$FINGERPRINTGUID
  2
{168a5a9e-64ea-458a-b7d8-7de7541308d5}
  9
$VERSIONGUID
  2
{FAEB1C32-E019-11D5-929B-00C0DF256EC4}
  9
$EXTNAMES
290
     1
  9
$PSVPSCALE
 40
0.0
  9
$OLESTARTUP
290
     0
  0
ENDSEC
  0
SECTION
  2
CLASSES
  0
CLASS
  1
ACDBDICTIONARYWDFLT
  2
AcDbDictionaryWithDefault
  3
ObjectDBX Classes
 90
        0
280
     0
281
     0
  0
CLASS
  1
VISUALSTYLE
  2
AcDbVisualStyle
  3
ObjectDBX Classes
 90
     4095
280
     0
281
     0
  0
CLASS
  1
MATERIAL
  2
AcDbMaterial
  3
ObjectDBX Classes
 90
     1153
280
     0
281
     0
  0
CLASS
  1
SCALE
  2
AcDbScale
  3
ObjectDBX Classes
 90
     1153
280
     0
281
     0
  0
CLASS
  1
TABLESTYLE
  2
AcDbTableStyle
  3
ObjectDBX Classes
 90
     4095
280
     0
281
     0
  0
CLASS
  1
MLEADERSTYLE
  2
AcDbMLeaderStyle
  3
ACDB_MLEADERSTYLE_CLASS
 90
     4095
280
     0
281
     0
  0
CLASS
  1
SUN
  2
AcDbSun
  3
SCENEOE
 90
     1153
280
     0
281
     0
  0
CLASS
  1
ACDBPLACEHOLDER
  2
AcDbPlaceHolder
  3
ObjectDBX Classes
 90
        0
280
     0
281
     0
  0
CLASS
  1
LAYOUT
  2
AcDbLayout
  3
ObjectDBX Classes
 90
        0
280
     0
281
     0
  0
ENDSEC
  0
SECTION
  2
TABLES
  0
TABLE
  2
VPORT
  5
8
330
0
100
AcDbSymbolTable
 70
     1
  0
VPORT
  5
29
330
8
100
AcDbSymbolTableRecord
100
AcDbViewportTableRecord
  2
*Active
 70
     0
 10
0.0
 20
0.0
 11
1.0
 21
1.0
 12
148.5
 22
105.0
 13
0.0
 23
0.0
 14
10.0
 24
10.0
 15
10.0
 25
10.0
 16
0.0
 26
0.0
 36
1.0
 17
0.0
 27
0.0
 37
0.0
 40
210.0
 41
1.4142857143
 42
50.0
 43
0.0
 44
0.0
 50
0.0
 51
0.0
 71
     0
 72
  2000
 73
     1
 74
     3
 75
     0
 76
     0
 77
     0
 78
     0
281
     0
 65
     1
110
0.0
120
0.0
130
0.0
111
1.0
121
0.0
131
0.0
112
0.0
122
1.0
132
0.0
 79
     0
146
0.0
  0
ENDTAB
  0
TABLE
  2
LTYPE
  5
5
330
0
100
AcDbSymbolTable
 70
     6
  0
LTYPE
  5
14
330
5
100
AcDbSymbolTableRecord
100
AcDbLinetypeTableRecord
  2
ByBlock
 70
     0
  3

 72
    65
 73
     0
 40
0.0
  0
LTYPE
  5
15
330
5
100
AcDbSymbolTableRecord
100
AcDbLinetypeTableRecord
  2
ByLayer
 70
     0
  3

 72
    65
 73
     0
 40
0.0
  0
LTYPE
  5
16
330
5
100
AcDbSymbolTableRecord
100
AcDbLinetypeTableRecord
  2
Continuous
 70
     0
  3
Solid line
 72
    65
 73
     0
 40
0.0
  0
LTYPE
  5
6E
330
5
100
AcDbSymbolTableRecord
100
AcDbLinetypeTableRecord
  2
HIDDEN
 70
     0
  3
Hidden __ __ __ __ __ __ __ __ __ __ __ __ __ __
 72
    65
 73
     2
 40
1.905
 49
1.27
 74
     0
 49
-0.635
 74
     0
  0
LTYPE
  5
6F
330
5
100
AcDbSymbolTableRecord
100
AcDbLinetypeTableRecord
  2
PHANTOM
 70
     0
  3
Phantom ______  __  __  ______  __  __  ______
 72
    65
 73
     6
 40
12.7
 49
6.35
 74
     0
 49
-1.27
 74
     0
 49
1.27
 74
     0
 49
-1.27
 74
     0
 49
1.27
 74
     0
 49
-1.27
 74
     0
  0
LTYPE
  5
70
330
5
100
AcDbSymbolTableRecord
100
AcDbLinetypeTableRecord
  2
CENTER
 70
     0
  3
Center ____ _ ____ _ ____ _ ____ _ ____ _ ____
 72
    65
 73
     4
 40
10.16
 49
6.35
 74
     0
 49
-1.27
 74
     0
 49
1.27
 74
     0
 49
-1.27
 74
     0
  0
LTYPE
  5
71
330
5
100
AcDbSymbolTableRecord
100
AcDbLinetypeTableRecord
  2
CENTERX2
 70
     0
  3
Center (2x) ________  __  ________  __  _____
 72
    65
 73
     4
 40
20.32
 49
12.7
 74
     0
 49
-2.54
 74
     0
 49
2.54
 74
     0
 49
-2.54
 74
     0
  0
LTYPE
  5
72
330
5
100
AcDbSymbolTableRecord
100
AcDbLinetypeTableRecord
  2
DOT2
 70
     0
  3
Dot (.5x) ........................................
 72
    65
 73
     2
 40
0.635
 49
0.0
 74
     0
 49
-0.635
 74
     0
  0
ENDTAB
  0
TABLE
  2
LAYER
  5
2
330
0
100
AcDbSymbolTable
 70
     2
  0
LAYER
  5
10
330
2
100
AcDbSymbolTableRecord
100
AcDbLayerTableRecord
  2
0
 70
     0
 62
     7
  6
Continuous
370
    -3
390
F
  0
LAYER
  5
73
330
2
100
AcDbSymbolTableRecord
100
AcDbLayerTableRecord
  2
FORMAT
 70
     0
 62
     1
  6
Continuous
370
    -3
390
F
  0
ENDTAB
  0
TABLE
  2
STYLE
  5
3
330
0
100
AcDbSymbolTable
 70
     2
  0
STYLE
  5
11
330
3
100
AcDbSymbolTableRecord
100
AcDbTextStyleTableRecord
  2
Standard
 70
     0
 40
0.0
 41
1.0
 50
0.0
 71
     0
 42
3.5
  3
txt
  4

  0
STYLE
  5
A3
330
3
100
AcDbSymbolTableRecord
100
AcDbTextStyleTableRecord
  2
SLDTEXTSTYLE0
 70
     0
 40
0.0
 41
0.75
 50
0.0
 71
     0
 42
3.5
  3
TXT
  4

  0
ENDTAB
  0
TABLE
  2
VIEW
  5
6
330
0
100
AcDbSymbolTable
 70
     0
  0
ENDTAB
  0
TABLE
  2
UCS
  5
7
330
0
100
AcDbSymbolTable
 70
     0
  0
ENDTAB
  0
TABLE
  2
APPID
  5
9
330
0
100
AcDbSymbolTable
 70
     1
  0
APPID
  5
12
330
9
100
AcDbSymbolTableRecord
100
AcDbRegAppTableRecord
  2
ACAD
 70
     0
  0
ENDTAB
  0
TABLE
  2
DIMSTYLE
  5
A
330
0
100
AcDbSymbolTable
 70
     7
100
AcDbDimStyleTable
  0
DIMSTYLE
105
27
330
A
100
AcDbSymbolTableRecord
100
AcDbDimStyleTableRecord
  2
ISO-25
 70
     0
 41
2.5
 42
0.625
 43
3.75
 44
1.25
 73
     0
 74
     0
 77
     1
 78
     8
140
2.5
141
2.5
143
0.0393700787
147
0.625
171
     3
172
     1
178
     0
271
     2
272
     2
274
     3
278
    44
283
     0
284
     8
340
11
  0
DIMSTYLE
105
10D
102
{ACAD_REACTORS
330
10C
330
117
330
132
330
13C
330
190
330
19A
102
}
330
A
100
AcDbSymbolTableRecord
100
AcDbDimStyleTableRecord
  2
SLDDIMSTYLE0
 70
     0
 41
3.302
 44
0.0
 45
0.000000001
 73
     0
 74
     0
 77
     1
 78
     4
 79
     1
140
3.0
144
4.0
147
0.75
173
     1
178
     0
271
     2
272
     2
276
     2
284
    12
340
A3
  0
DIMSTYLE
105
122
102
{ACAD_REACTORS
330
121
330
12A
102
}
330
A
100
AcDbSymbolTableRecord
100
AcDbDimStyleTableRecord
  2
SLDDIMSTYLE1
 70
     0
 41
3.302
 44
0.0
 45
0.000000001
 73
     0
 74
     0
 77
     1
 78
     4
 79
     1
140
3.0
141
0.0
144
4.0
147
0.75
173
     1
178
     0
271
     2
272
     2
276
     2
284
    12
340
A3
  0
DIMSTYLE
105
147
102
{ACAD_REACTORS
330
146
330
16C
330
178
330
184
102
}
330
A
100
AcDbSymbolTableRecord
100
AcDbDimStyleTableRecord
  2
SLDDIMSTYLE2
 70
     0
 41
3.302
 44
0.0
 45
0.000000001
 73
     0
 74
     0
 77
     1
 78
     4
 79
     1
140
3.0
144
4.0
147
0.75
172
     1
173
     1
178
     0
271
     2
272
     2
276
     2
284
    12
289
     0
340
A3
  0
DIMSTYLE
105
154
102
{ACAD_REACTORS
330
153
102
}
330
A
100
AcDbSymbolTableRecord
100
AcDbDimStyleTableRecord
  2
SLDDIMSTYLE3
 70
     0
 41
3.302
 44
0.0
 45
0.000000001
 73
     0
 74
     0
 77
     1
 78
     4
 79
     1
140
3.0
141
0.0
144
4.0
147
0.75
172
     1
173
     1
178
     0
271
     2
272
     2
276
     2
284
    12
340
A3
341
155
343
155
  0
DIMSTYLE
105
161
102
{ACAD_REACTORS
330
160
102
}
330
A
100
AcDbSymbolTableRecord
100
AcDbDimStyleTableRecord
  2
SLDDIMSTYLE4
 70
     0
 41
3.302
 44
0.0
 45
0.000000001
 73
     0
 74
     0
 77
     1
 78
    12
 79
     3
140
3.0
144
4.0
147
0.75
173
     1
178
     0
271
     2
272
     2
276
     2
284
    12
340
A3
  0
DIMSTYLE
105
225
102
{ACAD_REACTORS
330
224
102
}
330
A
100
AcDbSymbolTableRecord
100
AcDbDimStyleTableRecord
  2
SLDDIMSTYLE5
 70
     0
 41
3.302
 44
0.0
 45
0.000000001
 73
     0
 74
     0
 77
     1
140
3.0
144
4.0
147
0.75
172
     1
173
     1
178
     0
271
     2
272
     2
276
     2
284
    12
289
     0
340
A3
  0
ENDTAB
  0
TABLE
  2
BLOCK_RECORD
  5
1
330
0
100
AcDbSymbolTable
 70
    27
  0
BLOCK_RECORD
  5
1F
330
1
100
AcDbSymbolTableRecord
100
AcDbBlockTableRecord
  2
*Model_Space
340
22
  0
BLOCK_RECORD
  5
1B
330
1
100
AcDbSymbolTableRecord
100
AcDbBlockTableRecord
  2
*Paper_Space
340
1E
  0
BLOCK_RECORD
  5
23
330
1
100
AcDbSymbolTableRecord
100
AcDbBlockTableRecord
  2
*Paper_Space0
340
26
  0
BLOCK_RECORD
  5
D2
330
1
100
AcDbSymbolTableRecord
100
AcDbBlockTableRecord
  2
SW_REVISION_CLOUD_0
340
0
102
{BLKREFS
331
E3
102
}
  0
BLOCK_RECORD
  5
10E
330
1
100
AcDbSymbolTableRecord
100
AcDbBlockTableRecord
  2
_D
340
0
  0
BLOCK_RECORD
  5
118
330
1
100
AcDbSymbolTableRecord
100
AcDbBlockTableRecord
  2
_D_1
340
0
  0
BLOCK_RECORD
  5
123
330
1
100
AcDbSymbolTableRecord
100
AcDbBlockTableRecord
  2
_D_2
340
0
  0
BLOCK_RECORD
  5
12B
330
1
100
AcDbSymbolTableRecord
100
AcDbBlockTableRecord
  2
_D_3
340
0
  0
BLOCK_RECORD
  5
133
330
1
100
AcDbSymbolTableRecord
100
AcDbBlockTableRecord
  2
_D_4
340
0
  0
BLOCK_RECORD
  5
13D
330
1
100
AcDbSymbolTableRecord
100
AcDbBlockTableRecord
  2
_D_5
340
0
  0
BLOCK_RECORD
  5
148
330
1
100
AcDbSymbolTableRecord
100
AcDbBlockTableRecord
  2
_D_6
340
0
  0
BLOCK_RECORD
  5
155
330
1
100
AcDbSymbolTableRecord
100
AcDbBlockTableRecord
  2
_None
340
0
  0
BLOCK_RECORD
  5
158
330
1
100
AcDbSymbolTableRecord
100
AcDbBlockTableRecord
  2
_D_7
340
0
  0
BLOCK_RECORD
  5
162
330
1
100
AcDbSymbolTableRecord
100
AcDbBlockTableRecord
  2
_D_8
340
0
  0
BLOCK_RECORD
  5
16D
330
1
100
AcDbSymbolTableRecord
100
AcDbBlockTableRecord
  2
_D_9
340
0
  0
BLOCK_RECORD
  5
179
330
1
100
AcDbSymbolTableRecord
100
AcDbBlockTableRecord
  2
_D_10
340
0
  0
BLOCK_RECORD
  5
185
330
1
100
AcDbSymbolTableRecord
100
AcDbBlockTableRecord
  2
_D_11
340
0
  0
BLOCK_RECORD
  5
191
330
1
100
AcDbSymbolTableRecord
100
AcDbBlockTableRecord
  2
_D_12
340
0
  0
BLOCK_RECORD
  5
19B
330
1
100
AcDbSymbolTableRecord
100
AcDbBlockTableRecord
  2
_D_13
340
0
  0
BLOCK_RECORD
  5
1A5
330
1
100
AcDbSymbolTableRecord
100
AcDbBlockTableRecord
  2
SW_CENTERMARKSYMBOL_0
340
0
102
{BLKREFS
331
1B0
102
}
  0
BLOCK_RECORD
  5
1B1
330
1
100
AcDbSymbolTableRecord
100
AcDbBlockTableRecord
  2
SW_CENTERMARKSYMBOL_1
340
0
102
{BLKREFS
331
1BC
102
}
  0
BLOCK_RECORD
  5
1BD
330
1
100
AcDbSymbolTableRecord
100
AcDbBlockTableRecord
  2
SW_CENTERMARKSYMBOL_2
340
0
102
{BLKREFS
331
1C8
102
}
  0
BLOCK_RECORD
  5
1C9
330
1
100
AcDbSymbolTableRecord
100
AcDbBlockTableRecord
  2
SW_CENTERMARKSYMBOL_3
340
0
102
{BLKREFS
331
1D4
102
}
  0
BLOCK_RECORD
  5
1D5
330
1
100
AcDbSymbolTableRecord
100
AcDbBlockTableRecord
  2
SW_CENTERMARKSYMBOL_4
340
0
102
{BLKREFS
331
1E0
102
}
  0
BLOCK_RECORD
  5
1E1
330
1
100
AcDbSymbolTableRecord
100
AcDbBlockTableRecord
  2
SW_CENTERMARKSYMBOL_5
340
0
102
{BLKREFS
331
1EC
102
}
  0
BLOCK_RECORD
  5
1ED
330
1
100
AcDbSymbolTableRecord
100
AcDbBlockTableRecord
  2
SW_CENTERMARKSYMBOL_6
340
0
102
{BLKREFS
331
1F8
102
}
  0
BLOCK_RECORD
  5
1F9
330
1
100
AcDbSymbolTableRecord
100
AcDbBlockTableRecord
  2
SW_CENTERMARKSYMBOL_7
340
0
102
{BLKREFS
331
204
102
}
  0
BLOCK_RECORD
  5
206
330
1
100
AcDbSymbolTableRecord
100
AcDbBlockTableRecord
  2
SW_REVISION_CLOUD_1
340
0
102
{BLKREFS
331
219
102
}
  0
BLOCK_RECORD
  5
226
330
1
100
AcDbSymbolTableRecord
100
AcDbBlockTableRecord
  2
_D_14
340
0
  0
ENDTAB
  0
ENDSEC
  0
SECTION
  2
BLOCKS
  0
BLOCK
  5
20
330
1F
100
AcDbEntity
  8
0
100
AcDbBlockBegin
  2
*Model_Space
 70
     0
 10
0.0
 20
0.0
 30
0.0
  3
*Model_Space
  1

  0
ENDBLK
  5
21
330
1F
100
AcDbEntity
  8
0
100
AcDbBlockEnd
  0
BLOCK
  5
1C
330
1B
100
AcDbEntity
 67
     1
  8
0
100
AcDbBlockBegin
  2
*Paper_Space
 70
     0
 10
0.0
 20
0.0
 30
0.0
  3
*Paper_Space
  1

  0
ENDBLK
  5
1D
330
1B
100
AcDbEntity
 67
     1
  8
0
100
AcDbBlockEnd
  0
BLOCK
  5
24
330
23
100
AcDbEntity
  8
0
100
AcDbBlockBegin
  2
*Paper_Space0
 70
     0
 10
0.0
 20
0.0
 30
0.0
  3
*Paper_Space0
  1

  0
ENDBLK
  5
25
330
23
100
AcDbEntity
  8
0
100
AcDbBlockEnd
  0
BLOCK
  5
D3
330
D2
100
AcDbEntity
  8
0
100
AcDbBlockBegin
  2
SW_REVISION_CLOUD_0
 70
     0
 10
0.0
 20
0.0
 30
0.0
  3
SW_REVISION_CLOUD_0
  1

  0
ARC
  5
D5
330
D2
100
AcDbEntity
  8
FORMAT
  6
Continuous
 62
     0
370
    18
100
AcDbCircle
 10
2.2881631096
 20
-8.5178673313
 30
0.0
 40
2.615043553853153
100
AcDbArc
 50
208.9550243719
 51
331.0449756281
  0
ARC
  5
D6
330
D2
100
AcDbEntity
  8
FORMAT
  6
Continuous
 62
     0
370
    18
100
AcDbCircle
 10
-2.2881631096
 20
-8.5178673313
 30
0.0
 40
2.615043553853153
100
AcDbArc
 50
208.9550243719
 51
331.0449756281
  0
ARC
  5
D7
330
D2
100
AcDbEntity
  8
FORMAT
  6
Continuous
 62
     0
370
    18
100
AcDbCircle
 10
-3.3103237025
 20
-7.4957067384
 30
0.0
 40
2.615043553853159
100
AcDbArc
 50
118.9550243719
 51
241.0449756281
  0
ARC
  5
D8
330
D2
100
AcDbEntity
  8
FORMAT
  6
Continuous
 62
     0
370
    18
100
AcDbCircle
 10
-3.3103237025
 20
-2.9193805192
 30
0.0
 40
2.615043553853159
100
AcDbArc
 50
118.9550243719
 51
241.0449756281
  0
ARC
  5
D9
330
D2
100
AcDbEntity
  8
FORMAT
  6
Continuous
 62
     0
370
    18
100
AcDbCircle
 10
-3.3103237025
 20
1.6569457001
 30
0.0
 40
2.615043553853159
100
AcDbArc
 50
118.9550243719
 51
241.0449756281
  0
ARC
  5
DA
330
D2
100
AcDbEntity
  8
FORMAT
  6
Continuous
 62
     0
370
    18
100
AcDbCircle
 10
-3.3103237025
 20
6.2332719193
 30
0.0
 40
2.615043553853159
100
AcDbArc
 50
118.9550243719
 51
241.0449756281
  0
ARC
  5
DB
330
D2
100
AcDbEntity
  8
FORMAT
  6
Continuous
 62
     0
370
    18
100
AcDbCircle
 10
-4.2270841457
 20
9.1526524385
 30
0.0
 40
0.7213913252008982
100
AcDbArc
 50
118.9550243719
 51
241.0449756281
  0
ARC
  5
DC
330
D2
100
AcDbEntity
  8
FORMAT
  6
Continuous
 62
     0
370
    18
100
AcDbCircle
 10
-2.2881631096
 20
8.5178673313
 30
0.0
 40
2.615043553853153
100
AcDbArc
 50
28.9550243719
 51
151.0449756281
  0
ARC
  5
DD
330
D2
100
AcDbEntity
  8
FORMAT
  6
Continuous
 62
     0
370
    18
100
AcDbCircle
 10
2.2881631096
 20
8.5178673313
 30
0.0
 40
2.615043553853153
100
AcDbArc
 50
28.9550243719
 51
151.0449756281
  0
ARC
  5
DE
330
D2
100
AcDbEntity
  8
FORMAT
  6
Continuous
 62
     0
370
    18
100
AcDbCircle
 10
3.3103237025
 20
7.4957067384
 30
0.0
 40
2.615043553853158
100
AcDbArc
 50
298.9550243719
 51
61.0449756281
  0
ARC
  5
DF
330
D2
100
AcDbEntity
  8
FORMAT
  6
Continuous
 62
     0
370
    18
100
AcDbCircle
 10
3.3103237025
 20
2.9193805192
 30
0.0
 40
2.615043553853158
100
AcDbArc
 50
298.9550243719
 51
61.0449756281
  0
ARC
  5
E0
330
D2
100
AcDbEntity
  8
FORMAT
  6
Continuous
 62
     0
370
    18
100
AcDbCircle
 10
3.3103237025
 20
-1.6569457001
 30
0.0
 40
2.615043553853158
100
AcDbArc
 50
298.9550243719
 51
61.0449756281
  0
ARC
  5
E1
330
D2
100
AcDbEntity
  8
FORMAT
  6
Continuous
 62
     0
370
    18
100
AcDbCircle
 10
3.3103237025
 20
-6.2332719193
 30
0.0
 40
2.615043553853158
100
AcDbArc
 50
298.9550243719
 51
61.0449756281
  0
ARC
  5
E2
330
D2
100
AcDbEntity
  8
FORMAT
  6
Continuous
 62
     0
370
    18
100
AcDbCircle
 10
4.2270841457
 20
-9.1526524385
 30
0.0
 40
0.7213913252008982
100
AcDbArc
 50
298.9550243719
 51
61.0449756281
  0
ENDBLK
  5
D4
330
D2
100
AcDbEntity
  8
0
100
AcDbBlockEnd
  0
BLOCK
  5
10F
330
10E
100
AcDbEntity
  8
0
100
AcDbBlockBegin
  2
_D
 70
     0
 10
0.0
 20
0.0
 30
0.0
  3
_D
  1

  0
SOLID
  5
111
330
10E
100
AcDbEntity
  8
0
  6
Continuous
 62
     7
370
    18
100
AcDbTrace
 10
40.0153206184
 20
35.3754304444
 30
0.0
 11
43.3173206184
 21
34.8674304444
 31
0.0
 12
43.3173206184
 22
35.8834304444
 32
0.0
 13
43.3173206184
 23
35.8834304444
 33
0.0
  0
SOLID
  5
112
330
10E
100
AcDbEntity
  8
0
  6
Continuous
 62
     7
370
    18
100
AcDbTrace
 10
164.5153206184
 20
35.3754304444
 30
0.0
 11
161.2133206184
 21
35.8834304444
 31
0.0
 12
161.2133206184
 22
34.8674304444
 32
0.0
 13
161.2133206184
 23
34.8674304444
 33
0.0
  0
LINE
  5
113
330
10E
100
AcDbEntity
  8
0
  6
Continuous
 62
     7
370
     0
100
AcDbLine
 10
40.0153206184
 20
50.8754304444
 30
0.0
 11
40.0153206184
 21
34.3754304444
 31
0.0
  0
LINE
  5
114
330
10E
100
AcDbEntity
  8
0
  6
Continuous
 62
     7
370
     0
100
AcDbLine
 10
164.5153206184
 20
50.8754304444
 30
0.0
 11
164.5153206184
 21
34.3754304444
 31
0.0
  0
LINE
  5
115
330
10E
100
AcDbEntity
  8
0
  6
Continuous
 62
     7
370
     0
100
AcDbLine
 10
40.0153206184
 20
35.3754304444
 30
0.0
 11
164.5153206184
 21
35.3754304444
 31
0.0
  0
MTEXT
  5
116
330
10E
100
AcDbEntity
  8
0
  6
Continuous
 62
     7
370
    18
100
AcDbMText
 10
96.1694870076
 20
39.2426337801
 30
0.0
 40
3.0
 41
0.0
 71
     1
 72
     1
  1
498.00
  7
SLDTEXTSTYLE0
 73
     1
 44
1.0
  0
ENDBLK
  5
110
330
10E
100
AcDbEntity
  8
0
100
AcDbBlockEnd
  0
BLOCK
  5
119
330
118
100
AcDbEntity
  8
0
100
AcDbBlockBegin
  2
_D_1
 70
     0
 10
0.0
 20
0.0
 30
0.0
  3
_D_1
  1

  0
SOLID
  5
11B
330
118
100
AcDbEntity
  8
0
  6
Continuous
 62
     7
370
    18
100
AcDbTrace
 10
18.0153206184
 20
165.8754304444
 30
0.0
 11
17.5073206184
 21
162.5734304444
 31
0.0
 12
18.5233206184
 22
162.5734304444
 32
0.0
 13
18.5233206184
 23
162.5734304444
 33
0.0
  0
SOLID
  5
11C
330
118
100
AcDbEntity
  8
0
  6
Continuous
 62
     7
370
    18
100
AcDbTrace
 10
18.0153206184
 20
51.3754304444
 30
0.0
 11
18.5233206184
 21
54.6774304444
 31
0.0
 12
17.5073206184
 22
54.6774304444
 32
0.0
 13
17.5073206184
 23
54.6774304444
 33
0.0
  0
LINE
  5
11D
330
118
100
AcDbEntity
  8
0
  6
Continuous
 62
     7
370
     0
100
AcDbLine
 10
39.5153206184
 20
165.8754304444
 30
0.0
 11
17.0153206184
 21
165.8754304444
 31
0.0
  0
LINE
  5
11E
330
118
100
AcDbEntity
  8
0
  6
Continuous
 62
     7
370
     0
100
AcDbLine
 10
39.5153206184
 20
51.3754304444
 30
0.0
 11
17.0153206184
 21
51.3754304444
 31
0.0
  0
LINE
  5
11F
330
118
100
AcDbEntity
  8
0
  6
Continuous
 62
     7
370
     0
100
AcDbLine
 10
18.0153206184
 20
165.8754304444
 30
0.0
 11
18.0153206184
 21
51.3754304444
 31
0.0
  0
MTEXT
  5
120
330
118
100
AcDbEntity
  8
0
  6
Continuous
 62
     7
370
    18
100
AcDbMText
 10
14.1481172826
 20
95.1753005146
 30
0.0
 40
3.0
 41
0.0
 71
     1
 72
     1
  1
458.00
  7
SLDTEXTSTYLE0
 11
-7.044195017643634E-15
 21
1.0
 31
0.0
 73
     1
 44
1.0
  0
ENDBLK
  5
11A
330
118
100
AcDbEntity
  8
0
100
AcDbBlockEnd
  0
BLOCK
  5
124
330
123
100
AcDbEntity
  8
0
100
AcDbBlockBegin
  2
_D_2
 70
     0
 10
0.0
 20
0.0
 30
0.0
  3
_D_2
  1

  0
SOLID
  5
126
330
123
100
AcDbEntity
  8
0
  6
Continuous
 62
     7
370
    18
100
AcDbTrace
 10
164.368874009
 20
165.728983835
 30
0.0
 11
167.0629508453
 21
167.7046401816
 31
0.0
 12
166.3445303556
 22
168.4230606713
 32
0.0
 13
166.3445303556
 23
168.4230606713
 33
0.0
  0
LINE
  5
127
330
123
100
AcDbEntity
  8
0
  6
Continuous
 62
     7
370
     0
100
AcDbLine
 10
164.368874009
 20
165.728983835
 30
0.0
 11
180.7234300824
 21
182.0835399085
 31
0.0
  0
LINE
  5
128
330
123
100
AcDbEntity
  8
0
  6
Continuous
 62
     7
370
     0
100
AcDbLine
 10
164.368874009
 20
165.728983835
 30
0.0
 11
164.0153206184
 21
165.3754304444
 31
0.0
  0
MTEXT
  5
129
330
123
100
AcDbEntity
  8
0
  6
Continuous
 62
     7
370
    18
100
AcDbMText
 10
170.7987632328
 20
177.6009058701
 30
0.0
 40
3.0
 41
0.0
 71
     1
 72
     1
  1
R2.00
  7
SLDTEXTSTYLE0
 11
0.7071067811865471
 21
0.7071067811865479
 31
0.0
 73
     1
 44
1.0
  0
ENDBLK
  5
125
330
123
100
AcDbEntity
  8
0
100
AcDbBlockEnd
  0
BLOCK
  5
12C
330
12B
100
AcDbEntity
  8
0
100
AcDbBlockBegin
  2
_D_3
 70
     0
 10
0.0
 20
0.0
 30
0.0
  3
_D_3
  1

  0
SOLID
  5
12E
330
12B
100
AcDbEntity
  8
0
  6
Continuous
 62
     7
370
    18
100
AcDbTrace
 10
152.9148396712
 20
152.5004304444
 30
0.0
 11
156.0284555545
 21
153.7114895393
 31
0.0
 12
155.5204555545
 22
154.5913713495
 32
0.0
 13
155.5204555545
 23
154.5913713495
 33
0.0
  0
LINE
  5
12F
330
12B
100
AcDbEntity
  8
0
  6
Continuous
 62
     7
370
     0
100
AcDbLine
 10
152.9148396712
 20
152.5004304444
 30
0.0
 11
186.5393825424
 21
171.9135693225
 31
0.0
  0
LINE
  5
130
330
12B
100
AcDbEntity
  8
0
  6
Continuous
 62
     7
370
     0
100
AcDbLine
 10
152.9148396712
 20
152.5004304444
 30
0.0
 11
152.2653206184
 21
152.1254304444
 31
0.0
  0
MTEXT
  5
131
330
12B
100
AcDbEntity
  8
0
  6
Continuous
 62
     7
370
    18
100
AcDbMText
 10
175.7859624526
 20
170.1640389602
 30
0.0
 40
3.0
 41
0.0
 71
     1
 72
     1
  1
R3.00
  7
SLDTEXTSTYLE0
 11
0.8660254037844376
 21
0.5000000000000018
 31
0.0
 73
     1
 44
1.0
  0
ENDBLK
  5
12D
330
12B
100
AcDbEntity
  8
0
100
AcDbBlockEnd
  0
BLOCK
  5
134
330
133
100
AcDbEntity
  8
0
100
AcDbBlockBegin
  2
_D_4
 70
     0
 10
0.0
 20
0.0
 30
0.0
  3
_D_4
  1

  0
SOLID
  5
136
330
133
100
AcDbEntity
  8
0
  6
Continuous
 62
     7
370
    18
100
AcDbTrace
 10
30.0153206184
 20
152.8754304444
 30
0.0
 11
29.5073206184
 21
149.5734304444
 31
0.0
 12
30.5233206184
 22
149.5734304444
 32
0.0
 13
30.5233206184
 23
149.5734304444
 33
0.0
  0
SOLID
  5
137
330
133
100
AcDbEntity
  8
0
  6
Continuous
 62
     7
370
    18
100
AcDbTrace
 10
30.0153206184
 20
59.8754304444
 30
0.0
 11
30.5233206184
 21
63.1774304444
 31
0.0
 12
29.5073206184
 22
63.1774304444
 32
0.0
 13
29.5073206184
 23
63.1774304444
 33
0.0
  0
LINE
  5
138
330
133
100
AcDbEntity
  8
0
  6
Continuous
 62
     7
370
     0
100
AcDbLine
 10
51.2653206184
 20
152.8754304444
 30
0.0
 11
29.0153206184
 21
152.8754304444
 31
0.0
  0
LINE
  5
139
330
133
100
AcDbEntity
  8
0
  6
Continuous
 62
     7
370
     0
100
AcDbLine
 10
51.2653206184
 20
59.8754304444
 30
0.0
 11
29.0153206184
 21
59.8754304444
 31
0.0
  0
LINE
  5
13A
330
133
100
AcDbEntity
  8
0
  6
Continuous
 62
     7
370
     0
100
AcDbLine
 10
30.0153206184
 20
152.8754304444
 30
0.0
 11
30.0153206184
 21
59.8754304444
 31
0.0
  0
MTEXT
  5
13B
330
133
100
AcDbEntity
  8
0
  6
Continuous
 62
     7
370
    18
100
AcDbMText
 10
26.1481172826
 20
100.2795968337
 30
0.0
 40
3.0
 41
0.0
 71
     1
 72
     1
  1
372.00
  7
SLDTEXTSTYLE0
 11
-7.044195017643634E-15
 21
1.0
 31
0.0
 73
     1
 44
1.0
  0
ENDBLK
  5
135
330
133
100
AcDbEntity
  8
0
100
AcDbBlockEnd
  0
BLOCK
  5
13E
330
13D
100
AcDbEntity
  8
0
100
AcDbBlockBegin
  2
_D_5
 70
     0
 10
0.0
 20
0.0
 30
0.0
  3
_D_5
  1

  0
SOLID
  5
140
330
13D
100
AcDbEntity
  8
0
  6
Continuous
 62
     7
370
    18
100
AcDbTrace
 10
51.5153206184
 20
41.3754304444
 30
0.0
 11
54.8173206184
 21
40.8674304444
 31
0.0
 12
54.8173206184
 22
41.8834304444
 32
0.0
 13
54.8173206184
 23
41.8834304444
 33
0.0
  0
SOLID
  5
141
330
13D
100
AcDbEntity
  8
0
  6
Continuous
 62
     7
370
    18
100
AcDbTrace
 10
153.0153206184
 20
41.3754304444
 30
0.0
 11
149.7133206184
 21
41.8834304444
 31
0.0
 12
149.7133206184
 22
40.8674304444
 32
0.0
 13
149.7133206184
 23
40.8674304444
 33
0.0
  0
LINE
  5
142
330
13D
100
AcDbEntity
  8
0
  6
Continuous
 62
     7
370
     0
100
AcDbLine
 10
51.5153206184
 20
59.6254304444
 30
0.0
 11
51.5153206184
 21
40.3754304444
 31
0.0
  0
LINE
  5
143
330
13D
100
AcDbEntity
  8
0
  6
Continuous
 62
     7
370
     0
100
AcDbLine
 10
153.0153206184
 20
59.6254304444
 30
0.0
 11
153.0153206184
 21
40.3754304444
 31
0.0
  0
LINE
  5
144
330
13D
100
AcDbEntity
  8
0
  6
Continuous
 62
     7
370
     0
100
AcDbLine
 10
51.5153206184
 20
41.3754304444
 30
0.0
 11
153.0153206184
 21
41.3754304444
 31
0.0
  0
MTEXT
  5
145
330
13D
100
AcDbEntity
  8
0
  6
Continuous
 62
     7
370
    18
100
AcDbMText
 10
96.1694870076
 20
45.2426337801
 30
0.0
 40
3.0
 41
0.0
 71
     1
 72
     1
  1
406.00
  7
SLDTEXTSTYLE0
 73
     1
 44
1.0
  0
ENDBLK
  5
13F
330
13D
100
AcDbEntity
  8
0
100
AcDbBlockEnd
  0
BLOCK
  5
149
330
148
100
AcDbEntity
  8
0
100
AcDbBlockBegin
  2
_D_6
 70
     0
 10
0.0
 20
0.0
 30
0.0
  3
_D_6
  1

  0
SOLID
  5
14B
330
148
100
AcDbEntity
  8
0
  6
Continuous
 62
     7
370
    18
100
AcDbTrace
 10
30.0153206184
 20
165.8754304444
 30
0.0
 11
30.5233206184
 21
169.1774304444
 31
0.0
 12
29.5073206184
 22
169.1774304444
 32
0.0
 13
29.5073206184
 23
169.1774304444
 33
0.0
  0
SOLID
  5
14C
330
148
100
AcDbEntity
  8
0
  6
Continuous
 62
     7
370
    18
100
AcDbTrace
 10
30.0153206184
 20
163.3754304444
 30
0.0
 11
29.5073206184
 21
160.0734304444
 31
0.0
 12
30.5233206184
 22
160.0734304444
 32
0.0
 13
30.5233206184
 23
160.0734304444
 33
0.0
  0
LINE
  5
14D
330
148
100
AcDbEntity
  8
0
  6
Continuous
 62
     7
370
     0
100
AcDbLine
 10
39.5153206184
 20
165.8754304444
 30
0.0
 11
29.0153206184
 21
165.8754304444
 31
0.0
  0
LINE
  5
14E
330
148
100
AcDbEntity
  8
0
  6
Continuous
 62
     7
370
     0
100
AcDbLine
 10
70.3653206184
 20
163.3754304444
 30
0.0
 11
29.0153206184
 21
163.3754304444
 31
0.0
  0
LINE
  5
14F
330
148
100
AcDbEntity
  8
0
  6
Continuous
 62
     7
370
     0
100
AcDbLine
 10
30.0153206184
 20
165.8754304444
 30
0.0
 11
30.0153206184
 21
184.3247365435
 31
0.0
  0
LINE
  5
150
330
148
100
AcDbEntity
  8
0
  6
Continuous
 62
     7
370
     0
100
AcDbLine
 10
30.0153206184
 20
165.8754304444
 30
0.0
 11
30.0153206184
 21
163.3754304444
 31
0.0
  0
LINE
  5
151
330
148
100
AcDbEntity
  8
0
  6
Continuous
 62
     7
370
     0
100
AcDbLine
 10
30.0153206184
 20
163.3754304444
 30
0.0
 11
30.0153206184
 21
157.0254304444
 31
0.0
  0
MTEXT
  5
152
330
148
100
AcDbEntity
  8
0
  6
Continuous
 62
     7
370
    18
100
AcDbMText
 10
26.1481172826
 20
174.3497362589
 30
0.0
 40
3.0
 41
0.0
 71
     1
 72
     1
  1
10.00
  7
SLDTEXTSTYLE0
 11
-7.044195017643634E-15
 21
1.0
 31
0.0
 73
     1
 44
1.0
  0
ENDBLK
  5
14A
330
148
100
AcDbEntity
  8
0
100
AcDbBlockEnd
  0
BLOCK
  5
156
330
155
100
AcDbEntity
  8
0
100
AcDbBlockBegin
  2
_None
 70
     0
 10
0.0
 20
0.0
 30
0.0
  3
_None
  1

  0
ENDBLK
  5
157
330
155
100
AcDbEntity
  8
0
100
AcDbBlockEnd
  0
BLOCK
  5
159
330
158
100
AcDbEntity
  8
0
100
AcDbBlockBegin
  2
_D_7
 70
     0
 10
0.0
 20
0.0
 30
0.0
  3
_D_7
  1

  0
SOLID
  5
15B
330
158
100
AcDbEntity
  8
0
  6
Continuous
 62
     7
370
    18
100
AcDbTrace
 10
72.8448153119
 20
163.7841580395
 30
0.0
 11
75.3126726379
 21
166.0360346388
 31
0.0
 12
74.5216874253
 22
166.6736853218
 32
0.0
 13
74.5216874253
 23
166.6736853218
 33
0.0
  0
LINE
  5
15C
330
158
100
AcDbEntity
  8
0
  6
Continuous
 62
     7
370
     0
100
AcDbLine
 10
72.8448153119
 20
163.7841580395
 30
0.0
 11
88.1516874392
 21
182.7718417761
 31
0.0
  0
LINE
  5
15D
330
158
100
AcDbEntity
  8
0
  6
Continuous
 62
     7
370
     0
100
AcDbLine
 10
72.8448153119
 20
163.7841580395
 30
0.0
 11
72.1858259249
 21
162.9667028493
 31
0.0
  0
MTEXT
  5
15E
330
158
100
AcDbEntity
  8
0
  6
Continuous
 62
     7
370
    18
100
AcDbMText
 10
77.4478021928
 20
175.6239303227
 30
0.0
 40
3.0
 41
0.0
 71
     1
 72
     1
  1
%%c
  7
SLDTEXTSTYLE0
 11
0.6276089399564431
 21
0.7785287525112672
 31
0.0
 73
     1
 44
1.0
  0
MTEXT
  5
15F
330
158
100
AcDbEntity
  8
0
  6
Continuous
 62
     7
370
    18
100
AcDbMText
 10
80.2516577567
 20
179.175051613
 30
0.0
 40
3.0
 41
0.0
 71
     1
 72
     1
  1
4.20
  7
SLDTEXTSTYLE0
 11
0.6276089399564431
 21
0.7785287525112672
 31
0.0
 73
     1
 44
1.0
  0
ENDBLK
  5
15A
330
158
100
AcDbEntity
  8
0
100
AcDbBlockEnd
  0
BLOCK
  5
163
330
162
100
AcDbEntity
  8
0
100
AcDbBlockBegin
  2
_D_8
 70
     0
 10
0.0
 20
0.0
 30
0.0
  3
_D_8
  1

  0
SOLID
  5
165
330
162
100
AcDbEntity
  8
0
  6
Continuous
 62
     7
370
    18
100
AcDbTrace
 10
164.5153206184
 20
41.3754304444
 30
0.0
 11
161.2133206184
 21
41.8834304444
 31
0.0
 12
161.2133206184
 22
40.8674304444
 32
0.0
 13
161.2133206184
 23
40.8674304444
 33
0.0
  0
SOLID
  5
166
330
162
100
AcDbEntity
  8
0
  6
Continuous
 62
     7
370
    18
100
AcDbTrace
 10
155.1778206184
 20
41.3754304444
 30
0.0
 11
158.4798206184
 21
40.8674304444
 31
0.0
 12
158.4798206184
 22
41.8834304444
 32
0.0
 13
158.4798206184
 23
41.8834304444
 33
0.0
  0
LINE
  5
167
330
162
100
AcDbEntity
  8
0
  6
Continuous
 62
     7
370
     0
100
AcDbLine
 10
164.5153206184
 20
50.8754304444
 30
0.0
 11
164.5153206184
 21
40.3754304444
 31
0.0
  0
LINE
  5
168
330
162
100
AcDbEntity
  8
0
  6
Continuous
 62
     7
370
     0
100
AcDbLine
 10
155.1778206184
 20
72.5504304443
 30
0.0
 11
155.1778206184
 21
40.3754304444
 31
0.0
  0
LINE
  5
169
330
162
100
AcDbEntity
  8
0
  6
Continuous
 62
     7
370
     0
100
AcDbLine
 10
164.5153206184
 20
41.3754304444
 30
0.0
 11
182.9646267175
 21
41.3754304444
 31
0.0
  0
LINE
  5
16A
330
162
100
AcDbEntity
  8
0
  6
Continuous
 62
     7
370
     0
100
AcDbLine
 10
164.5153206184
 20
41.3754304444
 30
0.0
 11
155.1778206184
 21
41.3754304444
 31
0.0
  0
MTEXT
  5
16B
330
162
100
AcDbEntity
  8
0
  6
Continuous
 62
     7
370
    18
100
AcDbMText
 10
172.9896264329
 20
45.2426337801
 30
0.0
 40
3.0
 41
0.0
 71
     1
 72
     1
  1
37.35
  7
SLDTEXTSTYLE0
 73
     1
 44
1.0
  0
ENDBLK
  5
164
330
162
100
AcDbEntity
  8
0
100
AcDbBlockEnd
  0
BLOCK
  5
16E
330
16D
100
AcDbEntity
  8
0
100
AcDbBlockBegin
  2
_D_9
 70
     0
 10
0.0
 20
0.0
 30
0.0
  3
_D_9
  1

  0
SOLID
  5
170
330
16D
100
AcDbEntity
  8
0
  6
Continuous
 62
     7
370
    18
100
AcDbTrace
 10
155.1778206184
 20
47.0714913338
 30
0.0
 11
158.4798206184
 21
46.5634913338
 31
0.0
 12
158.4798206184
 22
47.5794913338
 32
0.0
 13
158.4798206184
 23
47.5794913338
 33
0.0
  0
SOLID
  5
171
330
16D
100
AcDbEntity
  8
0
  6
Continuous
 62
     7
370
    18
100
AcDbTrace
 10
154.7278206184
 20
47.0714913338
 30
0.0
 11
151.4258206184
 21
47.5794913338
 31
0.0
 12
151.4258206184
 22
46.5634913338
 32
0.0
 13
151.4258206184
 23
46.5634913338
 33
0.0
  0
LINE
  5
172
330
16D
100
AcDbEntity
  8
0
  6
Continuous
 62
     7
370
     0
100
AcDbLine
 10
155.1778206184
 20
72.5504304443
 30
0.0
 11
155.1778206184
 21
46.0714913338
 31
0.0
  0
LINE
  5
173
330
16D
100
AcDbEntity
  8
0
  6
Continuous
 62
     7
370
     0
100
AcDbLine
 10
154.7278206184
 20
72.5504304443
 30
0.0
 11
154.7278206184
 21
46.0714913338
 31
0.0
  0
LINE
  5
174
330
16D
100
AcDbEntity
  8
0
  6
Continuous
 62
     7
370
     0
100
AcDbLine
 10
155.1778206184
 20
47.0714913338
 30
0.0
 11
181.8562932491
 21
47.0714913338
 31
0.0
  0
LINE
  5
175
330
16D
100
AcDbEntity
  8
0
  6
Continuous
 62
     7
370
     0
100
AcDbLine
 10
155.1778206184
 20
47.0714913338
 30
0.0
 11
154.7278206184
 21
47.0714913338
 31
0.0
  0
LINE
  5
176
330
16D
100
AcDbEntity
  8
0
  6
Continuous
 62
     7
370
     0
100
AcDbLine
 10
154.7278206184
 20
47.0714913338
 30
0.0
 11
148.3778206184
 21
47.0714913338
 31
0.0
  0
MTEXT
  5
177
330
16D
100
AcDbEntity
  8
0
  6
Continuous
 62
     7
370
    18
100
AcDbMText
 10
174.0979599013
 20
50.9386946695
 30
0.0
 40
3.0
 41
0.0
 71
     1
 72
     1
  1
1.80
  7
SLDTEXTSTYLE0
 73
     1
 44
1.0
  0
ENDBLK
  5
16F
330
16D
100
AcDbEntity
  8
0
100
AcDbBlockEnd
  0
BLOCK
  5
17A
330
179
100
AcDbEntity
  8
0
100
AcDbBlockBegin
  2
_D_10
 70
     0
 10
0.0
 20
0.0
 30
0.0
  3
_D_10
  1

  0
SOLID
  5
17C
330
179
100
AcDbEntity
  8
0
  6
Continuous
 62
     7
370
    18
100
AcDbTrace
 10
186.5153206184
 20
73.5504304443
 30
0.0
 11
187.0233206184
 21
76.8524304443
 31
0.0
 12
186.0073206184
 22
76.8524304443
 32
0.0
 13
186.0073206184
 23
76.8524304443
 33
0.0
  0
SOLID
  5
17D
330
179
100
AcDbEntity
  8
0
  6
Continuous
 62
     7
370
    18
100
AcDbTrace
 10
186.5153206184
 20
51.3754304444
 30
0.0
 11
186.0073206184
 21
48.0734304444
 31
0.0
 12
187.0233206184
 22
48.0734304444
 32
0.0
 13
187.0233206184
 23
48.0734304444
 33
0.0
  0
LINE
  5
17E
330
179
100
AcDbEntity
  8
0
  6
Continuous
 62
     7
370
     0
100
AcDbLine
 10
156.1778206184
 20
73.5504304443
 30
0.0
 11
187.5153206184
 21
73.5504304443
 31
0.0
  0
LINE
  5
17F
330
179
100
AcDbEntity
  8
0
  6
Continuous
 62
     7
370
     0
100
AcDbLine
 10
165.0153206184
 20
51.3754304444
 30
0.0
 11
187.5153206184
 21
51.3754304444
 31
0.0
  0
LINE
  5
180
330
179
100
AcDbEntity
  8
0
  6
Continuous
 62
     7
370
     0
100
AcDbLine
 10
186.5153206184
 20
73.5504304443
 30
0.0
 11
186.5153206184
 21
79.9004304443
 31
0.0
  0
LINE
  5
181
330
179
100
AcDbEntity
  8
0
  6
Continuous
 62
     7
370
     0
100
AcDbLine
 10
186.5153206184
 20
73.5504304443
 30
0.0
 11
186.5153206184
 21
51.3754304444
 31
0.0
  0
LINE
  5
182
330
179
100
AcDbEntity
  8
0
  6
Continuous
 62
     7
370
     0
100
AcDbLine
 10
186.5153206184
 20
51.3754304444
 30
0.0
 11
186.5153206184
 21
45.0254304444
 31
0.0
  0
MTEXT
  5
183
330
179
100
AcDbEntity
  8
0
  6
Continuous
 62
     7
370
    18
100
AcDbMText
 10
182.6481172826
 20
57.4754303021
 30
0.0
 40
3.0
 41
0.0
 71
     1
 72
     1
  1
88.70
  7
SLDTEXTSTYLE0
 11
-7.044195017643634E-15
 21
1.0
 31
0.0
 73
     1
 44
1.0
  0
ENDBLK
  5
17B
330
179
100
AcDbEntity
  8
0
100
AcDbBlockEnd
  0
BLOCK
  5
186
330
185
100
AcDbEntity
  8
0
100
AcDbBlockBegin
  2
_D_11
 70
     0
 10
0.0
 20
0.0
 30
0.0
  3
_D_11
  1

  0
SOLID
  5
188
330
185
100
AcDbEntity
  8
0
  6
Continuous
 62
     7
370
    18
100
AcDbTrace
 10
174.5153206184
 20
73.5504304443
 30
0.0
 11
174.0073206184
 21
70.2484304443
 31
0.0
 12
175.0233206184
 22
70.2484304443
 32
0.0
 13
175.0233206184
 23
70.2484304443
 33
0.0
  0
SOLID
  5
189
330
185
100
AcDbEntity
  8
0
  6
Continuous
 62
     7
370
    18
100
AcDbTrace
 10
174.5153206184
 20
77.8754304443
 30
0.0
 11
175.0233206184
 21
81.1774304443
 31
0.0
 12
174.0073206184
 22
81.1774304443
 32
0.0
 13
174.0073206184
 23
81.1774304443
 33
0.0
  0
LINE
  5
18A
330
185
100
AcDbEntity
  8
0
  6
Continuous
 62
     7
370
     0
100
AcDbLine
 10
156.1778206184
 20
73.5504304443
 30
0.0
 11
175.5153206184
 21
73.5504304443
 31
0.0
  0
LINE
  5
18B
330
185
100
AcDbEntity
  8
0
  6
Continuous
 62
     7
370
     0
100
AcDbLine
 10
156.1778206184
 20
77.8754304443
 30
0.0
 11
175.5153206184
 21
77.8754304443
 31
0.0
  0
LINE
  5
18C
330
185
100
AcDbEntity
  8
0
  6
Continuous
 62
     7
370
     0
100
AcDbLine
 10
174.5153206184
 20
73.5504304443
 30
0.0
 11
174.5153206184
 21
55.1011243452
 31
0.0
  0
LINE
  5
18D
330
185
100
AcDbEntity
  8
0
  6
Continuous
 62
     7
370
     0
100
AcDbLine
 10
174.5153206184
 20
73.5504304443
 30
0.0
 11
174.5153206184
 21
77.8754304443
 31
0.0
  0
LINE
  5
18E
330
185
100
AcDbEntity
  8
0
  6
Continuous
 62
     7
370
     0
100
AcDbLine
 10
174.5153206184
 20
77.8754304443
 30
0.0
 11
174.5153206184
 21
84.2254304443
 31
0.0
  0
MTEXT
  5
18F
330
185
100
AcDbEntity
  8
0
  6
Continuous
 62
     7
370
    18
100
AcDbMText
 10
170.6481172826
 20
55.1011243452
 30
0.0
 40
3.0
 41
0.0
 71
     1
 72
     1
  1
17.30
  7
SLDTEXTSTYLE0
 11
6.123233995736766E-17
 21
1.0
 31
0.0
 73
     1
 44
1.0
  0
ENDBLK
  5
187
330
185
100
AcDbEntity
  8
0
100
AcDbBlockEnd
  0
BLOCK
  5
192
330
191
100
AcDbEntity
  8
0
100
AcDbBlockBegin
  2
_D_12
 70
     0
 10
0.0
 20
0.0
 30
0.0
  3
_D_12
  1

  0
SOLID
  5
194
330
191
100
AcDbEntity
  8
0
  6
Continuous
 62
     7
370
    18
100
AcDbTrace
 10
174.5153206184
 20
77.8754304443
 30
0.0
 11
175.0233206184
 21
81.1774304443
 31
0.0
 12
174.0073206184
 22
81.1774304443
 32
0.0
 13
174.0073206184
 23
81.1774304443
 33
0.0
  0
SOLID
  5
195
330
191
100
AcDbEntity
  8
0
  6
Continuous
 62
     7
370
    18
100
AcDbTrace
 10
174.5153206184
 20
131.0504304443
 30
0.0
 11
174.0073206184
 21
127.7484304443
 31
0.0
 12
175.0233206184
 22
127.7484304443
 32
0.0
 13
175.0233206184
 23
127.7484304443
 33
0.0
  0
LINE
  5
196
330
191
100
AcDbEntity
  8
0
  6
Continuous
 62
     7
370
     0
100
AcDbLine
 10
156.1778206184
 20
77.8754304443
 30
0.0
 11
175.5153206184
 21
77.8754304443
 31
0.0
  0
LINE
  5
197
330
191
100
AcDbEntity
  8
0
  6
Continuous
 62
     7
370
     0
100
AcDbLine
 10
156.1778206184
 20
131.0504304443
 30
0.0
 11
175.5153206184
 21
131.0504304443
 31
0.0
  0
LINE
  5
198
330
191
100
AcDbEntity
  8
0
  6
Continuous
 62
     7
370
     0
100
AcDbLine
 10
174.5153206184
 20
77.8754304443
 30
0.0
 11
174.5153206184
 21
131.0504304443
 31
0.0
  0
MTEXT
  5
199
330
191
100
AcDbEntity
  8
0
  6
Continuous
 62
     7
370
    18
100
AcDbMText
 10
170.6481172826
 20
98.3670968336
 30
0.0
 40
3.0
 41
0.0
 71
     1
 72
     1
  1
212.70
  7
SLDTEXTSTYLE0
 11
6.123233995736766E-17
 21
1.0
 31
0.0
 73
     1
 44
1.0
  0
ENDBLK
  5
193
330
191
100
AcDbEntity
  8
0
100
AcDbBlockEnd
  0
BLOCK
  5
19C
330
19B
100
AcDbEntity
  8
0
100
AcDbBlockBegin
  2
_D_13
 70
     0
 10
0.0
 20
0.0
 30
0.0
  3
_D_13
  1

  0
SOLID
  5
19E
330
19B
100
AcDbEntity
  8
0
  6
Continuous
 62
     7
370
    18
100
AcDbTrace
 10
24.0153206184
 20
152.8754304444
 30
0.0
 11
24.5233206184
 21
156.1774304444
 31
0.0
 12
23.5073206184
 22
156.1774304444
 32
0.0
 13
23.5073206184
 23
156.1774304444
 33
0.0
  0
SOLID
  5
19F
330
19B
100
AcDbEntity
  8
0
  6
Continuous
 62
     7
370
    18
100
AcDbTrace
 10
24.0153206184
 20
165.8754304444
 30
0.0
 11
23.5073206184
 21
162.5734304444
 31
0.0
 12
24.5233206184
 22
162.5734304444
 32
0.0
 13
24.5233206184
 23
162.5734304444
 33
0.0
  0
LINE
  5
1A0
330
19B
100
AcDbEntity
  8
0
  6
Continuous
 62
     7
370
     0
100
AcDbLine
 10
51.2653206184
 20
152.8754304444
 30
0.0
 11
23.0153206184
 21
152.8754304444
 31
0.0
  0
LINE
  5
1A1
330
19B
100
AcDbEntity
  8
0
  6
Continuous
 62
     7
370
     0
100
AcDbLine
 10
39.5153206184
 20
165.8754304444
 30
0.0
 11
23.0153206184
 21
165.8754304444
 31
0.0
  0
LINE
  5
1A2
330
19B
100
AcDbEntity
  8
0
  6
Continuous
 62
     7
370
     0
100
AcDbLine
 10
24.0153206184
 20
152.8754304444
 30
0.0
 11
24.0153206184
 21
165.8754304444
 31
0.0
  0
LINE
  5
1A3
330
19B
100
AcDbEntity
  8
0
  6
Continuous
 62
     7
370
     0
100
AcDbLine
 10
24.0153206184
 20
165.8754304444
 30
0.0
 11
24.0153206184
 21
184.3247365435
 31
0.0
  0
MTEXT
  5
1A4
330
19B
100
AcDbEntity
  8
0
  6
Continuous
 62
     7
370
    18
100
AcDbMText
 10
20.1481172826
 20
174.3497362589
 30
0.0
 40
3.0
 41
0.0
 71
     1
 72
     1
  1
52.00
  7
SLDTEXTSTYLE0
 11
-1.608122649676637E-16
 21
1.0
 31
0.0
 73
     1
 44
1.0
  0
ENDBLK
  5
19D
330
19B
100
AcDbEntity
  8
0
100
AcDbBlockEnd
  0
BLOCK
  5
1A6
330
1A5
100
AcDbEntity
  8
0
100
AcDbBlockBegin
  2
SW_CENTERMARKSYMBOL_0
 70
     0
 10
0.0
 20
0.0
 30
0.0
  3
SW_CENTERMARKSYMBOL_0
  1

  0
LINE
  5
1A8
330
1A5
100
AcDbEntity
  8
0
  6
Continuous
 62
     0
370
    18
100
AcDbLine
 10
0.0
 20
0.0
 30
0.0
 11
0.0
 21
0.625
 31
0.0
  0
LINE
  5
1A9
330
1A5
100
AcDbEntity
  8
0
  6
Continuous
 62
     0
370
    18
100
AcDbLine
 10
0.0
 20
0.0
 30
0.0
 11
-0.625
 21
0.0
 31
0.0
  0
LINE
  5
1AA
330
1A5
100
AcDbEntity
  8
0
  6
Continuous
 62
     0
370
    18
100
AcDbLine
 10
0.0
 20
0.0
 30
0.0
 11
0.0
 21
-0.625
 31
0.0
  0
LINE
  5
1AB
330
1A5
100
AcDbEntity
  8
0
  6
Continuous
 62
     0
370
    18
100
AcDbLine
 10
0.0
 20
0.0
 30
0.0
 11
0.625
 21
0.0
 31
0.0
  0
LINE
  5
1AC
330
1A5
100
AcDbEntity
  8
0
  6
Continuous
 62
     0
370
    18
100
AcDbLine
 10
0.0
 20
0.625
 30
0.0
 11
0.0
 21
1.15
 31
0.0
  0
LINE
  5
1AD
330
1A5
100
AcDbEntity
  8
0
  6
Continuous
 62
     0
370
    18
100
AcDbLine
 10
-0.625
 20
0.0
 30
0.0
 11
-1.15
 21
0.0
 31
0.0
  0
LINE
  5
1AE
330
1A5
100
AcDbEntity
  8
0
  6
Continuous
 62
     0
370
    18
100
AcDbLine
 10
0.0
 20
-0.625
 30
0.0
 11
0.0
 21
-1.15
 31
0.0
  0
LINE
  5
1AF
330
1A5
100
AcDbEntity
  8
0
  6
Continuous
 62
     0
370
    18
100
AcDbLine
 10
0.625
 20
0.0
 30
0.0
 11
1.15
 21
0.0
 31
0.0
  0
ENDBLK
  5
1A7
330
1A5
100
AcDbEntity
  8
0
100
AcDbBlockEnd
  0
BLOCK
  5
1B2
330
1B1
100
AcDbEntity
  8
0
100
AcDbBlockBegin
  2
SW_CENTERMARKSYMBOL_1
 70
     0
 10
0.0
 20
0.0
 30
0.0
  3
SW_CENTERMARKSYMBOL_1
  1

  0
LINE
  5
1B4
330
1B1
100
AcDbEntity
  8
0
  6
Continuous
 62
     0
370
    18
100
AcDbLine
 10
0.0
 20
0.0
 30
0.0
 11
0.0
 21
0.625
 31
0.0
  0
LINE
  5
1B5
330
1B1
100
AcDbEntity
  8
0
  6
Continuous
 62
     0
370
    18
100
AcDbLine
 10
0.0
 20
0.0
 30
0.0
 11
-0.625
 21
0.0
 31
0.0
  0
LINE
  5
1B6
330
1B1
100
AcDbEntity
  8
0
  6
Continuous
 62
     0
370
    18
100
AcDbLine
 10
0.0
 20
0.0
 30
0.0
 11
0.0
 21
-0.625
 31
0.0
  0
LINE
  5
1B7
330
1B1
100
AcDbEntity
  8
0
  6
Continuous
 62
     0
370
    18
100
AcDbLine
 10
0.0
 20
0.0
 30
0.0
 11
0.625
 21
0.0
 31
0.0
  0
LINE
  5
1B8
330
1B1
100
AcDbEntity
  8
0
  6
Continuous
 62
     0
370
    18
100
AcDbLine
 10
0.0
 20
0.625
 30
0.0
 11
0.0
 21
1.15
 31
0.0
  0
LINE
  5
1B9
330
1B1
100
AcDbEntity
  8
0
  6
Continuous
 62
     0
370
    18
100
AcDbLine
 10
-0.625
 20
0.0
 30
0.0
 11
-1.15
 21
0.0
 31
0.0
  0
LINE
  5
1BA
330
1B1
100
AcDbEntity
  8
0
  6
Continuous
 62
     0
370
    18
100
AcDbLine
 10
0.0
 20
-0.625
 30
0.0
 11
0.0
 21
-1.15
 31
0.0
  0
LINE
  5
1BB
330
1B1
100
AcDbEntity
  8
0
  6
Continuous
 62
     0
370
    18
100
AcDbLine
 10
0.625
 20
0.0
 30
0.0
 11
1.15
 21
0.0
 31
0.0
  0
ENDBLK
  5
1B3
330
1B1
100
AcDbEntity
  8
0
100
AcDbBlockEnd
  0
BLOCK
  5
1BE
330
1BD
100
AcDbEntity
  8
0
100
AcDbBlockBegin
  2
SW_CENTERMARKSYMBOL_2
 70
     0
 10
0.0
 20
0.0
 30
0.0
  3
SW_CENTERMARKSYMBOL_2
  1

  0
LINE
  5
1C0
330
1BD
100
AcDbEntity
  8
0
  6
Continuous
 62
     0
370
    18
100
AcDbLine
 10
0.0
 20
0.0
 30
0.0
 11
0.0
 21
0.625
 31
0.0
  0
LINE
  5
1C1
330
1BD
100
AcDbEntity
  8
0
  6
Continuous
 62
     0
370
    18
100
AcDbLine
 10
0.0
 20
0.0
 30
0.0
 11
-0.625
 21
0.0
 31
0.0
  0
LINE
  5
1C2
330
1BD
100
AcDbEntity
  8
0
  6
Continuous
 62
     0
370
    18
100
AcDbLine
 10
0.0
 20
0.0
 30
0.0
 11
0.0
 21
-0.625
 31
0.0
  0
LINE
  5
1C3
330
1BD
100
AcDbEntity
  8
0
  6
Continuous
 62
     0
370
    18
100
AcDbLine
 10
0.0
 20
0.0
 30
0.0
 11
0.625
 21
0.0
 31
0.0
  0
LINE
  5
1C4
330
1BD
100
AcDbEntity
  8
0
  6
Continuous
 62
     0
370
    18
100
AcDbLine
 10
0.0
 20
0.625
 30
0.0
 11
0.0
 21
1.15
 31
0.0
  0
LINE
  5
1C5
330
1BD
100
AcDbEntity
  8
0
  6
Continuous
 62
     0
370
    18
100
AcDbLine
 10
-0.625
 20
0.0
 30
0.0
 11
-1.15
 21
0.0
 31
0.0
  0
LINE
  5
1C6
330
1BD
100
AcDbEntity
  8
0
  6
Continuous
 62
     0
370
    18
100
AcDbLine
 10
0.0
 20
-0.625
 30
0.0
 11
0.0
 21
-1.15
 31
0.0
  0
LINE
  5
1C7
330
1BD
100
AcDbEntity
  8
0
  6
Continuous
 62
     0
370
    18
100
AcDbLine
 10
0.625
 20
0.0
 30
0.0
 11
1.15
 21
0.0
 31
0.0
  0
ENDBLK
  5
1BF
330
1BD
100
AcDbEntity
  8
0
100
AcDbBlockEnd
  0
BLOCK
  5
1CA
330
1C9
100
AcDbEntity
  8
0
100
AcDbBlockBegin
  2
SW_CENTERMARKSYMBOL_3
 70
     0
 10
0.0
 20
0.0
 30
0.0
  3
SW_CENTERMARKSYMBOL_3
  1

  0
LINE
  5
1CC
330
1C9
100
AcDbEntity
  8
0
  6
Continuous
 62
     0
370
    18
100
AcDbLine
 10
0.0
 20
0.0
 30
0.0
 11
0.0
 21
0.625
 31
0.0
  0
LINE
  5
1CD
330
1C9
100
AcDbEntity
  8
0
  6
Continuous
 62
     0
370
    18
100
AcDbLine
 10
0.0
 20
0.0
 30
0.0
 11
-0.625
 21
0.0
 31
0.0
  0
LINE
  5
1CE
330
1C9
100
AcDbEntity
  8
0
  6
Continuous
 62
     0
370
    18
100
AcDbLine
 10
0.0
 20
0.0
 30
0.0
 11
0.0
 21
-0.625
 31
0.0
  0
LINE
  5
1CF
330
1C9
100
AcDbEntity
  8
0
  6
Continuous
 62
     0
370
    18
100
AcDbLine
 10
0.0
 20
0.0
 30
0.0
 11
0.625
 21
0.0
 31
0.0
  0
LINE
  5
1D0
330
1C9
100
AcDbEntity
  8
0
  6
Continuous
 62
     0
370
    18
100
AcDbLine
 10
0.0
 20
0.625
 30
0.0
 11
0.0
 21
1.15
 31
0.0
  0
LINE
  5
1D1
330
1C9
100
AcDbEntity
  8
0
  6
Continuous
 62
     0
370
    18
100
AcDbLine
 10
-0.625
 20
0.0
 30
0.0
 11
-1.15
 21
0.0
 31
0.0
  0
LINE
  5
1D2
330
1C9
100
AcDbEntity
  8
0
  6
Continuous
 62
     0
370
    18
100
AcDbLine
 10
0.0
 20
-0.625
 30
0.0
 11
0.0
 21
-1.15
 31
0.0
  0
LINE
  5
1D3
330
1C9
100
AcDbEntity
  8
0
  6
Continuous
 62
     0
370
    18
100
AcDbLine
 10
0.625
 20
0.0
 30
0.0
 11
1.15
 21
0.0
 31
0.0
  0
ENDBLK
  5
1CB
330
1C9
100
AcDbEntity
  8
0
100
AcDbBlockEnd
  0
BLOCK
  5
1D6
330
1D5
100
AcDbEntity
  8
0
100
AcDbBlockBegin
  2
SW_CENTERMARKSYMBOL_4
 70
     0
 10
0.0
 20
0.0
 30
0.0
  3
SW_CENTERMARKSYMBOL_4
  1

  0
LINE
  5
1D8
330
1D5
100
AcDbEntity
  8
0
  6
Continuous
 62
     0
370
    18
100
AcDbLine
 10
0.0
 20
0.0
 30
0.0
 11
0.0
 21
0.625
 31
0.0
  0
LINE
  5
1D9
330
1D5
100
AcDbEntity
  8
0
  6
Continuous
 62
     0
370
    18
100
AcDbLine
 10
0.0
 20
0.0
 30
0.0
 11
-0.625
 21
0.0
 31
0.0
  0
LINE
  5
1DA
330
1D5
100
AcDbEntity
  8
0
  6
Continuous
 62
     0
370
    18
100
AcDbLine
 10
0.0
 20
0.0
 30
0.0
 11
0.0
 21
-0.625
 31
0.0
  0
LINE
  5
1DB
330
1D5
100
AcDbEntity
  8
0
  6
Continuous
 62
     0
370
    18
100
AcDbLine
 10
0.0
 20
0.0
 30
0.0
 11
0.625
 21
0.0
 31
0.0
  0
LINE
  5
1DC
330
1D5
100
AcDbEntity
  8
0
  6
Continuous
 62
     0
370
    18
100
AcDbLine
 10
0.0
 20
0.625
 30
0.0
 11
0.0
 21
1.15
 31
0.0
  0
LINE
  5
1DD
330
1D5
100
AcDbEntity
  8
0
  6
Continuous
 62
     0
370
    18
100
AcDbLine
 10
-0.625
 20
0.0
 30
0.0
 11
-1.15
 21
0.0
 31
0.0
  0
LINE
  5
1DE
330
1D5
100
AcDbEntity
  8
0
  6
Continuous
 62
     0
370
    18
100
AcDbLine
 10
0.0
 20
-0.625
 30
0.0
 11
0.0
 21
-1.15
 31
0.0
  0
LINE
  5
1DF
330
1D5
100
AcDbEntity
  8
0
  6
Continuous
 62
     0
370
    18
100
AcDbLine
 10
0.625
 20
0.0
 30
0.0
 11
1.15
 21
0.0
 31
0.0
  0
ENDBLK
  5
1D7
330
1D5
100
AcDbEntity
  8
0
100
AcDbBlockEnd
  0
BLOCK
  5
1E2
330
1E1
100
AcDbEntity
  8
0
100
AcDbBlockBegin
  2
SW_CENTERMARKSYMBOL_5
 70
     0
 10
0.0
 20
0.0
 30
0.0
  3
SW_CENTERMARKSYMBOL_5
  1

  0
LINE
  5
1E4
330
1E1
100
AcDbEntity
  8
0
  6
Continuous
 62
     0
370
    18
100
AcDbLine
 10
0.0
 20
0.0
 30
0.0
 11
0.0
 21
0.625
 31
0.0
  0
LINE
  5
1E5
330
1E1
100
AcDbEntity
  8
0
  6
Continuous
 62
     0
370
    18
100
AcDbLine
 10
0.0
 20
0.0
 30
0.0
 11
-0.625
 21
0.0
 31
0.0
  0
LINE
  5
1E6
330
1E1
100
AcDbEntity
  8
0
  6
Continuous
 62
     0
370
    18
100
AcDbLine
 10
0.0
 20
0.0
 30
0.0
 11
0.0
 21
-0.625
 31
0.0
  0
LINE
  5
1E7
330
1E1
100
AcDbEntity
  8
0
  6
Continuous
 62
     0
370
    18
100
AcDbLine
 10
0.0
 20
0.0
 30
0.0
 11
0.625
 21
0.0
 31
0.0
  0
LINE
  5
1E8
330
1E1
100
AcDbEntity
  8
0
  6
Continuous
 62
     0
370
    18
100
AcDbLine
 10
0.0
 20
0.625
 30
0.0
 11
0.0
 21
1.15
 31
0.0
  0
LINE
  5
1E9
330
1E1
100
AcDbEntity
  8
0
  6
Continuous
 62
     0
370
    18
100
AcDbLine
 10
-0.625
 20
0.0
 30
0.0
 11
-1.15
 21
0.0
 31
0.0
  0
LINE
  5
1EA
330
1E1
100
AcDbEntity
  8
0
  6
Continuous
 62
     0
370
    18
100
AcDbLine
 10
0.0
 20
-0.625
 30
0.0
 11
0.0
 21
-1.15
 31
0.0
  0
LINE
  5
1EB
330
1E1
100
AcDbEntity
  8
0
  6
Continuous
 62
     0
370
    18
100
AcDbLine
 10
0.625
 20
0.0
 30
0.0
 11
1.15
 21
0.0
 31
0.0
  0
ENDBLK
  5
1E3
330
1E1
100
AcDbEntity
  8
0
100
AcDbBlockEnd
  0
BLOCK
  5
1EE
330
1ED
100
AcDbEntity
  8
0
100
AcDbBlockBegin
  2
SW_CENTERMARKSYMBOL_6
 70
     0
 10
0.0
 20
0.0
 30
0.0
  3
SW_CENTERMARKSYMBOL_6
  1

  0
LINE
  5
1F0
330
1ED
100
AcDbEntity
  8
0
  6
Continuous
 62
     0
370
    18
100
AcDbLine
 10
0.0
 20
0.0
 30
0.0
 11
0.0
 21
0.625
 31
0.0
  0
LINE
  5
1F1
330
1ED
100
AcDbEntity
  8
0
  6
Continuous
 62
     0
370
    18
100
AcDbLine
 10
0.0
 20
0.0
 30
0.0
 11
-0.625
 21
0.0
 31
0.0
  0
LINE
  5
1F2
330
1ED
100
AcDbEntity
  8
0
  6
Continuous
 62
     0
370
    18
100
AcDbLine
 10
0.0
 20
0.0
 30
0.0
 11
0.0
 21
-0.625
 31
0.0
  0
LINE
  5
1F3
330
1ED
100
AcDbEntity
  8
0
  6
Continuous
 62
     0
370
    18
100
AcDbLine
 10
0.0
 20
0.0
 30
0.0
 11
0.625
 21
0.0
 31
0.0
  0
LINE
  5
1F4
330
1ED
100
AcDbEntity
  8
0
  6
Continuous
 62
     0
370
    18
100
AcDbLine
 10
0.0
 20
0.625
 30
0.0
 11
0.0
 21
1.15
 31
0.0
  0
LINE
  5
1F5
330
1ED
100
AcDbEntity
  8
0
  6
Continuous
 62
     0
370
    18
100
AcDbLine
 10
-0.625
 20
0.0
 30
0.0
 11
-1.15
 21
0.0
 31
0.0
  0
LINE
  5
1F6
330
1ED
100
AcDbEntity
  8
0
  6
Continuous
 62
     0
370
    18
100
AcDbLine
 10
0.0
 20
-0.625
 30
0.0
 11
0.0
 21
-1.15
 31
0.0
  0
LINE
  5
1F7
330
1ED
100
AcDbEntity
  8
0
  6
Continuous
 62
     0
370
    18
100
AcDbLine
 10
0.625
 20
0.0
 30
0.0
 11
1.15
 21
0.0
 31
0.0
  0
ENDBLK
  5
1EF
330
1ED
100
AcDbEntity
  8
0
100
AcDbBlockEnd
  0
BLOCK
  5
1FA
330
1F9
100
AcDbEntity
  8
0
100
AcDbBlockBegin
  2
SW_CENTERMARKSYMBOL_7
 70
     0
 10
0.0
 20
0.0
 30
0.0
  3
SW_CENTERMARKSYMBOL_7
  1

  0
LINE
  5
1FC
330
1F9
100
AcDbEntity
  8
0
  6
Continuous
 62
     0
370
    18
100
AcDbLine
 10
0.0
 20
0.0
 30
0.0
 11
0.0
 21
0.625
 31
0.0
  0
LINE
  5
1FD
330
1F9
100
AcDbEntity
  8
0
  6
Continuous
 62
     0
370
    18
100
AcDbLine
 10
0.0
 20
0.0
 30
0.0
 11
-0.625
 21
0.0
 31
0.0
  0
LINE
  5
1FE
330
1F9
100
AcDbEntity
  8
0
  6
Continuous
 62
     0
370
    18
100
AcDbLine
 10
0.0
 20
0.0
 30
0.0
 11
0.0
 21
-0.625
 31
0.0
  0
LINE
  5
1FF
330
1F9
100
AcDbEntity
  8
0
  6
Continuous
 62
     0
370
    18
100
AcDbLine
 10
0.0
 20
0.0
 30
0.0
 11
0.625
 21
0.0
 31
0.0
  0
LINE
  5
200
330
1F9
100
AcDbEntity
  8
0
  6
Continuous
 62
     0
370
    18
100
AcDbLine
 10
0.0
 20
0.625
 30
0.0
 11
0.0
 21
1.15
 31
0.0
  0
LINE
  5
201
330
1F9
100
AcDbEntity
  8
0
  6
Continuous
 62
     0
370
    18
100
AcDbLine
 10
-0.625
 20
0.0
 30
0.0
 11
-1.15
 21
0.0
 31
0.0
  0
LINE
  5
202
330
1F9
100
AcDbEntity
  8
0
  6
Continuous
 62
     0
370
    18
100
AcDbLine
 10
0.0
 20
-0.625
 30
0.0
 11
0.0
 21
-1.15
 31
0.0
  0
LINE
  5
203
330
1F9
100
AcDbEntity
  8
0
  6
Continuous
 62
     0
370
    18
100
AcDbLine
 10
0.625
 20
0.0
 30
0.0
 11
1.15
 21
0.0
 31
0.0
  0
ENDBLK
  5
1FB
330
1F9
100
AcDbEntity
  8
0
100
AcDbBlockEnd
  0
BLOCK
  5
207
330
206
100
AcDbEntity
  8
0
100
AcDbBlockBegin
  2
SW_REVISION_CLOUD_1
 70
     0
 10
0.0
 20
0.0
 30
0.0
  3
SW_REVISION_CLOUD_1
  1

  0
ARC
  5
209
330
206
100
AcDbEntity
  8
FORMAT
  6
Continuous
 62
     0
370
    18
100
AcDbCircle
 10
7.7718643551
 20
-2.3400564104
 30
0.0
 40
1.848565270827236
100
AcDbArc
 50
208.9550243719
 51
331.0449756281
  0
ARC
  5
20A
330
206
100
AcDbEntity
  8
FORMAT
  6
Continuous
 62
     0
370
    18
100
AcDbCircle
 10
4.5368751311
 20
-2.3400564104
 30
0.0
 40
1.848565270827236
100
AcDbArc
 50
208.9550243719
 51
331.0449756281
  0
ARC
  5
20B
330
206
100
AcDbEntity
  8
FORMAT
  6
Continuous
 62
     0
370
    18
100
AcDbCircle
 10
1.3018859072
 20
-2.3400564104
 30
0.0
 40
1.848565270827236
100
AcDbArc
 50
208.9550243719
 51
331.0449756281
  0
ARC
  5
20C
330
206
100
AcDbEntity
  8
FORMAT
  6
Continuous
 62
     0
370
    18
100
AcDbCircle
 10
-1.9331033167
 20
-2.3400564104
 30
0.0
 40
1.848565270827236
100
AcDbArc
 50
208.9550243719
 51
331.0449756281
  0
ARC
  5
20D
330
206
100
AcDbEntity
  8
FORMAT
  6
Continuous
 62
     0
370
    18
100
AcDbCircle
 10
-5.1680925407
 20
-2.3400564104
 30
0.0
 40
1.848565270827236
100
AcDbArc
 50
208.9550243719
 51
331.0449756281
  0
ARC
  5
20E
330
206
100
AcDbEntity
  8
FORMAT
  6
Continuous
 62
     0
370
    18
100
AcDbCircle
 10
-8.0874730599
 20
-2.5146774472
 30
0.0
 40
1.487869608226792
100
AcDbArc
 50
208.9550243719
 51
331.0449756281
  0
ARC
  5
20F
330
206
100
AcDbEntity
  8
FORMAT
  6
Continuous
 62
     0
370
    18
100
AcDbCircle
 10
-8.4944261535
 20
-1.617494612
 30
0.0
 40
1.848565270827233
100
AcDbArc
 50
118.9550243719
 51
241.0449756281
  0
ARC
  5
210
330
206
100
AcDbEntity
  8
FORMAT
  6
Continuous
 62
     0
370
    18
100
AcDbCircle
 10
-8.4944261535
 20
1.617494612
 30
0.0
 40
1.848565270827233
100
AcDbArc
 50
118.9550243719
 51
241.0449756281
  0
ARC
  5
211
330
206
100
AcDbEntity
  8
FORMAT
  6
Continuous
 62
     0
370
    18
100
AcDbCircle
 10
-7.7718643551
 20
2.3400564104
 30
0.0
 40
1.848565270827236
100
AcDbArc
 50
28.9550243719
 51
151.0449756281
  0
ARC
  5
212
330
206
100
AcDbEntity
  8
FORMAT
  6
Continuous
 62
     0
370
    18
100
AcDbCircle
 10
-4.5368751311
 20
2.3400564104
 30
0.0
 40
1.848565270827236
100
AcDbArc
 50
28.9550243719
 51
151.0449756281
  0
ARC
  5
213
330
206
100
AcDbEntity
  8
FORMAT
  6
Continuous
 62
     0
370
    18
100
AcDbCircle
 10
-1.3018859072
 20
2.3400564104
 30
0.0
 40
1.848565270827236
100
AcDbArc
 50
28.9550243719
 51
151.0449756281
  0
ARC
  5
214
330
206
100
AcDbEntity
  8
FORMAT
  6
Continuous
 62
     0
370
    18
100
AcDbCircle
 10
1.9331033167
 20
2.3400564104
 30
0.0
 40
1.848565270827236
100
AcDbArc
 50
28.9550243719
 51
151.0449756281
  0
ARC
  5
215
330
206
100
AcDbEntity
  8
FORMAT
  6
Continuous
 62
     0
370
    18
100
AcDbCircle
 10
5.1680925407
 20
2.3400564104
 30
0.0
 40
1.848565270827236
100
AcDbArc
 50
28.9550243719
 51
151.0449756281
  0
ARC
  5
216
330
206
100
AcDbEntity
  8
FORMAT
  6
Continuous
 62
     0
370
    18
100
AcDbCircle
 10
8.0874730599
 20
2.5146774472
 30
0.0
 40
1.487869608226792
100
AcDbArc
 50
28.9550243719
 51
151.0449756281
  0
ARC
  5
217
330
206
100
AcDbEntity
  8
FORMAT
  6
Continuous
 62
     0
370
    18
100
AcDbCircle
 10
8.4944261535
 20
1.617494612
 30
0.0
 40
1.848565270827233
100
AcDbArc
 50
298.9550243719
 51
61.0449756281
  0
ARC
  5
218
330
206
100
AcDbEntity
  8
FORMAT
  6
Continuous
 62
     0
370
    18
100
AcDbCircle
 10
8.4944261535
 20
-1.617494612
 30
0.0
 40
1.848565270827233
100
AcDbArc
 50
298.9550243719
 51
61.0449756281
  0
ENDBLK
  5
208
330
206
100
AcDbEntity
  8
0
100
AcDbBlockEnd
  0
BLOCK
  5
227
330
226
100
AcDbEntity
  8
0
100
AcDbBlockBegin
  2
_D_14
 70
     0
 10
0.0
 20
0.0
 30
0.0
  3
_D_14
  1

  0
SOLID
  5
229
330
226
100
AcDbEntity
  8
0
  6
Continuous
 62
     7
370
    18
100
AcDbTrace
 10
205.6957229766
 20
46.341780508
 30
0.0
 11
202.3937229766
 21
46.849780508
 31
0.0
 12
202.3937229766
 22
45.833780508
 32
0.0
 13
202.3937229766
 23
45.833780508
 33
0.0
  0
SOLID
  5
22A
330
226
100
AcDbEntity
  8
0
  6
Continuous
 62
     7
370
    18
100
AcDbTrace
 10
205.8957229766
 20
46.341780508
 30
0.0
 11
209.1977229766
 21
45.833780508
 31
0.0
 12
209.1977229766
 22
46.849780508
 32
0.0
 13
209.1977229766
 23
46.849780508
 33
0.0
  0
LINE
  5
22B
330
226
100
AcDbEntity
  8
0
  6
Continuous
 62
     7
370
     0
100
AcDbLine
 10
205.6957229766
 20
50.3754304444
 30
0.0
 11
205.6957229766
 21
45.341780508
 31
0.0
  0
LINE
  5
22C
330
226
100
AcDbEntity
  8
0
  6
Continuous
 62
     7
370
     0
100
AcDbLine
 10
205.8957229766
 20
50.3754304444
 30
0.0
 11
205.8957229766
 21
45.341780508
 31
0.0
  0
LINE
  5
22D
330
226
100
AcDbEntity
  8
0
  6
Continuous
 62
     7
370
     0
100
AcDbLine
 10
205.6957229766
 20
46.341780508
 30
0.0
 11
199.3457229766
 21
46.341780508
 31
0.0
  0
LINE
  5
22E
330
226
100
AcDbEntity
  8
0
  6
Continuous
 62
     7
370
     0
100
AcDbLine
 10
205.6957229766
 20
46.341780508
 30
0.0
 11
205.8957229766
 21
46.341780508
 31
0.0
  0
LINE
  5
22F
330
226
100
AcDbEntity
  8
0
  6
Continuous
 62
     7
370
     0
100
AcDbLine
 10
205.8957229766
 20
46.341780508
 30
0.0
 11
235.092453309
 21
46.341780508
 31
0.0
  0
MTEXT
  5
230
330
226
100
AcDbEntity
  8
0
  6
Continuous
 62
     7
370
    18
100
AcDbMText
 10
227.3341199613
 20
50.2089838437
 30
0.0
 40
3.0
 41
0.0
 71
     1
 72
     1
  1
0.80
  7
SLDTEXTSTYLE0
 73
     1
 44
1.0
  0
ENDBLK
  5
228
330
226
100
AcDbEntity
  8
0
100
AcDbBlockEnd
  0
ENDSEC
  0
SECTION
  2
ENTITIES
  0
LINE
  5
74
330
1F
100
AcDbEntity
  8
0
  6
Continuous
 62
     7
370
    50
100
AcDbLine
 10
227.4111474801
 20
9.8324744738
 30
0.0
 11
292.0
 21
9.8324744738
 31
0.0
  0
LINE
  5
75
330
1F
100
AcDbEntity
  8
0
  6
Continuous
 62
     7
370
    50
100
AcDbLine
 10
252.0677815902
 20
9.8324744738
 30
0.0
 11
252.0677815902
 21
17.5712023099
 31
0.0
  0
LINE
  5
76
330
1F
100
AcDbEntity
  8
0
  6
Continuous
 62
     7
370
    50
100
AcDbLine
 10
260.1753134687
 20
5.1743887174
 30
0.0
 11
260.1753134687
 21
9.8324744738
 31
0.0
  0
LINE
  5
77
330
1F
100
AcDbEntity
  8
0
  6
Continuous
 62
     7
370
    50
100
AcDbLine
 10
227.4111474801
 20
27.2578504249
 30
0.0
 11
292.0
 21
27.2578504249
 31
0.0
  0
LINE
  5
78
330
1F
100
AcDbEntity
  8
0
  6
Continuous
 62
     7
370
    70
100
AcDbLine
 10
5.0
 20
5.0
 30
0.0
 11
5.0
 21
205.0
 31
0.0
  0
LINE
  5
79
330
1F
100
AcDbEntity
  8
0
  6
Continuous
 62
     7
370
    70
100
AcDbLine
 10
5.0
 20
205.0
 30
0.0
 11
292.0
 21
205.0
 31
0.0
  0
LINE
  5
7A
330
1F
100
AcDbEntity
  8
0
  6
Continuous
 62
     7
370
    70
100
AcDbLine
 10
292.0
 20
205.0
 30
0.0
 11
292.0
 21
5.1961379461
 31
0.0
  0
LINE
  5
7B
330
1F
100
AcDbEntity
  8
0
  6
Continuous
 62
     7
370
    70
100
AcDbLine
 10
292.0
 20
5.1961379461
 30
0.0
 11
5.0
 21
5.0
 31
0.0
  0
LINE
  5
7C
330
1F
100
AcDbEntity
  8
0
  6
Continuous
 62
     7
370
    50
100
AcDbLine
 10
227.4111474801
 20
17.5712023099
 30
0.0
 11
292.0
 21
17.5712023099
 31
0.0
  0
LINE
  5
7D
330
1F
100
AcDbEntity
  8
0
  6
Continuous
 62
     7
370
    50
100
AcDbLine
 10
227.4111474801
 20
27.2578504249
 30
0.0
 11
227.4111474801
 21
5.1740942653
 31
0.0
  0
LINE
  5
7E
330
1F
100
AcDbEntity
  8
0
  6
Continuous
 62
     7
370
    35
100
AcDbLine
 10
4.999
 20
105.0
 30
0.0
 11
5.001
 21
105.0
 31
0.0
  0
LINE
  5
7F
330
1F
100
AcDbEntity
  8
0
  6
Continuous
 62
     7
370
    35
100
AcDbLine
 10
148.5
 20
205.001
 30
0.0
 11
148.5
 21
204.999
 31
0.0
  0
LINE
  5
80
330
1F
100
AcDbEntity
  8
0
  6
Continuous
 62
     7
370
    35
100
AcDbLine
 10
292.001
 20
105.0
 30
0.0
 11
291.999
 21
105.0
 31
0.0
  0
LINE
  5
81
330
1F
100
AcDbEntity
  8
0
  6
Continuous
 62
     7
370
    35
100
AcDbLine
 10
148.5
 20
4.999
 30
0.0
 11
148.5
 21
5.001
 31
0.0
  0
LINE
  5
82
330
1F
100
AcDbEntity
  8
0
  6
Continuous
 62
     7
370
    35
100
AcDbLine
 10
5.0
 20
26.25
 30
0.0
 11
0.0
 21
26.25
 31
0.0
  0
LINE
  5
83
330
1F
100
AcDbEntity
  8
0
  6
Continuous
 62
     7
370
    35
100
AcDbLine
 10
292.0
 20
26.25
 30
0.0
 11
297.0
 21
26.25
 31
0.0
  0
LINE
  5
84
330
1F
100
AcDbEntity
  8
0
  6
Continuous
 62
     7
370
    35
100
AcDbLine
 10
5.0
 20
52.5
 30
0.0
 11
0.0
 21
52.5
 31
0.0
  0
LINE
  5
85
330
1F
100
AcDbEntity
  8
0
  6
Continuous
 62
     7
370
    35
100
AcDbLine
 10
292.0
 20
52.5
 30
0.0
 11
297.0
 21
52.5
 31
0.0
  0
LINE
  5
86
330
1F
100
AcDbEntity
  8
0
  6
Continuous
 62
     7
370
    50
100
AcDbLine
 10
280.7073747193
 20
9.8324744738
 30
0.0
 11
280.7073747193
 21
17.5712023099
 31
0.0
  0
LINE
  5
87
330
1F
100
AcDbEntity
  8
0
  6
Continuous
 62
     7
370
    35
100
AcDbLine
 10
5.0
 20
78.75
 30
0.0
 11
0.0
 21
78.75
 31
0.0
  0
LINE
  5
88
330
1F
100
AcDbEntity
  8
0
  6
Continuous
 62
     7
370
    35
100
AcDbLine
 10
292.0
 20
78.75
 30
0.0
 11
297.0
 21
78.75
 31
0.0
  0
LINE
  5
89
330
1F
100
AcDbEntity
  8
0
  6
Continuous
 62
     7
370
    35
100
AcDbLine
 10
5.0
 20
105.0
 30
0.0
 11
0.0
 21
105.0
 31
0.0
  0
LINE
  5
8A
330
1F
100
AcDbEntity
  8
0
  6
Continuous
 62
     7
370
    35
100
AcDbLine
 10
292.0
 20
105.0
 30
0.0
 11
297.0
 21
105.0
 31
0.0
  0
LINE
  5
8B
330
1F
100
AcDbEntity
  8
0
  6
Continuous
 62
     7
370
    35
100
AcDbLine
 10
5.0
 20
131.25
 30
0.0
 11
0.0
 21
131.25
 31
0.0
  0
LINE
  5
8C
330
1F
100
AcDbEntity
  8
0
  6
Continuous
 62
     7
370
    35
100
AcDbLine
 10
292.0
 20
131.25
 30
0.0
 11
297.0
 21
131.25
 31
0.0
  0
LINE
  5
8D
330
1F
100
AcDbEntity
  8
0
  6
Continuous
 62
     7
370
    35
100
AcDbLine
 10
5.0
 20
157.5
 30
0.0
 11
0.0
 21
157.5
 31
0.0
  0
LINE
  5
8E
330
1F
100
AcDbEntity
  8
0
  6
Continuous
 62
     7
370
    35
100
AcDbLine
 10
292.0
 20
157.5
 30
0.0
 11
297.0
 21
157.5
 31
0.0
  0
LINE
  5
8F
330
1F
100
AcDbEntity
  8
0
  6
Continuous
 62
     7
370
    35
100
AcDbLine
 10
5.0
 20
183.75
 30
0.0
 11
0.0
 21
183.75
 31
0.0
  0
LINE
  5
90
330
1F
100
AcDbEntity
  8
0
  6
Continuous
 62
     7
370
    35
100
AcDbLine
 10
292.0
 20
183.75
 30
0.0
 11
297.0
 21
183.75
 31
0.0
  0
LINE
  5
91
330
1F
100
AcDbEntity
  8
0
  6
Continuous
 62
     7
370
    35
100
AcDbLine
 10
29.7
 20
205.0
 30
0.0
 11
29.7
 21
210.0
 31
0.0
  0
LINE
  5
92
330
1F
100
AcDbEntity
  8
0
  6
Continuous
 62
     7
370
    35
100
AcDbLine
 10
29.7
 20
5.0
 30
0.0
 11
29.7
 21
0.0
 31
0.0
  0
LINE
  5
93
330
1F
100
AcDbEntity
  8
0
  6
Continuous
 62
     7
370
    35
100
AcDbLine
 10
59.4
 20
205.0
 30
0.0
 11
59.4
 21
210.0
 31
0.0
  0
LINE
  5
94
330
1F
100
AcDbEntity
  8
0
  6
Continuous
 62
     7
370
    35
100
AcDbLine
 10
59.4
 20
5.0
 30
0.0
 11
59.4
 21
0.0
 31
0.0
  0
LINE
  5
95
330
1F
100
AcDbEntity
  8
0
  6
Continuous
 62
     7
370
    35
100
AcDbLine
 10
89.1
 20
205.0
 30
0.0
 11
89.1
 21
210.0
 31
0.0
  0
LINE
  5
96
330
1F
100
AcDbEntity
  8
0
  6
Continuous
 62
     7
370
    35
100
AcDbLine
 10
89.1
 20
5.0
 30
0.0
 11
89.1
 21
0.0
 31
0.0
  0
LINE
  5
97
330
1F
100
AcDbEntity
  8
0
  6
Continuous
 62
     7
370
    35
100
AcDbLine
 10
118.8
 20
205.0
 30
0.0
 11
118.8
 21
210.0
 31
0.0
  0
LINE
  5
98
330
1F
100
AcDbEntity
  8
0
  6
Continuous
 62
     7
370
    35
100
AcDbLine
 10
118.8
 20
5.0
 30
0.0
 11
118.8
 21
0.0
 31
0.0
  0
LINE
  5
99
330
1F
100
AcDbEntity
  8
0
  6
Continuous
 62
     7
370
    35
100
AcDbLine
 10
148.5
 20
205.0
 30
0.0
 11
148.5
 21
210.0
 31
0.0
  0
LINE
  5
9A
330
1F
100
AcDbEntity
  8
0
  6
Continuous
 62
     7
370
    35
100
AcDbLine
 10
148.5
 20
5.0
 30
0.0
 11
148.5
 21
0.0
 31
0.0
  0
LINE
  5
9B
330
1F
100
AcDbEntity
  8
0
  6
Continuous
 62
     7
370
    35
100
AcDbLine
 10
178.2
 20
205.0
 30
0.0
 11
178.2
 21
210.0
 31
0.0
  0
LINE
  5
9C
330
1F
100
AcDbEntity
  8
0
  6
Continuous
 62
     7
370
    35
100
AcDbLine
 10
178.2
 20
5.0
 30
0.0
 11
178.2
 21
0.0
 31
0.0
  0
LINE
  5
9D
330
1F
100
AcDbEntity
  8
0
  6
Continuous
 62
     7
370
    35
100
AcDbLine
 10
207.9
 20
205.0
 30
0.0
 11
207.9
 21
210.0
 31
0.0
  0
LINE
  5
9E
330
1F
100
AcDbEntity
  8
0
  6
Continuous
 62
     7
370
    35
100
AcDbLine
 10
207.9
 20
5.0
 30
0.0
 11
207.9
 21
0.0
 31
0.0
  0
LINE
  5
9F
330
1F
100
AcDbEntity
  8
0
  6
Continuous
 62
     7
370
    35
100
AcDbLine
 10
237.6
 20
205.0
 30
0.0
 11
237.6
 21
210.0
 31
0.0
  0
LINE
  5
A0
330
1F
100
AcDbEntity
  8
0
  6
Continuous
 62
     7
370
    35
100
AcDbLine
 10
237.6
 20
5.0
 30
0.0
 11
237.6
 21
0.0
 31
0.0
  0
LINE
  5
A1
330
1F
100
AcDbEntity
  8
0
  6
Continuous
 62
     7
370
    35
100
AcDbLine
 10
267.3
 20
205.0
 30
0.0
 11
267.3
 21
210.0
 31
0.0
  0
LINE
  5
A2
330
1F
100
AcDbEntity
  8
0
  6
Continuous
 62
     7
370
    35
100
AcDbLine
 10
267.3
 20
5.0
 30
0.0
 11
267.3
 21
0.0
 31
0.0
  0
MTEXT
  5
A4
330
1F
100
AcDbEntity
  8
0
  6
Continuous
 62
     7
370
     0
100
AcDbMText
 10
228.2983269649
 20
8.3331670486
 30
0.0
 40
1.5
 41
0.0
 71
     1
 72
     1
  1
DIMENSIONS ARE IN MILLIMETERS
  7
SLDTEXTSTYLE0
 73
     1
 44
1.0
  0
MTEXT
  5
A5
330
1F
100
AcDbEntity
  8
0
  6
Continuous
 62
     7
370
     0
100
AcDbMText
 10
253.1954896204
 20
16.4819349329
 30
0.0
 40
1.5
 41
0.0
 71
     1
 72
     1
  1
FINISH:
  7
SLDTEXTSTYLE0
 73
     1
 44
1.0
  0
MTEXT
  5
A6
330
1F
100
AcDbEntity
  8
0
  6
Continuous
 62
     7
370
     0
100
AcDbMText
 10
228.2983269649
 20
16.4819349329
 30
0.0
 40
1.5
 41
0.0
 71
     1
 72
     1
  1
MATERIAL:
  7
SLDTEXTSTYLE0
 73
     1
 44
1.0
  0
MTEXT
  5
A7
330
1F
100
AcDbEntity
  8
0
  6
Continuous
 62
     7
370
     0
100
AcDbMText
 10
263.8412039898
 20
8.3331670486
 30
0.0
 40
1.5
 41
0.0
 71
     1
 72
     1
  1
info@makertech3d.com
  7
SLDTEXTSTYLE0
 73
     1
 44
1.0
  0
MTEXT
  5
A8
330
1F
100
AcDbEntity
  8
0
  6
Continuous
 62
     7
370
     0
100
AcDbMText
 10
228.6518219581
 20
26.0589350811
 30
0.0
 40
1.5
 41
0.0
 71
     1
 72
     1
  1
TITLE:
  7
SLDTEXTSTYLE0
 73
     1
 44
1.0
  0
MTEXT
  5
A9
330
1F
100
AcDbEntity
  8
0
  6
Continuous
 62
     7
370
     0
100
AcDbMText
 10
258.8829883525
 20
24.3473642572
 30
0.0
 40
2.9104166667
 41
0.0
 71
     2
 72
     1
  1
P3.5_Enclosure Top Panel
  7
SLDTEXTSTYLE0
 73
     1
 44
1.0
  0
MTEXT
  5
AA
330
1F
100
AcDbEntity
  8
0
  6
Continuous
 62
     7
370
     0
100
AcDbMText
 10
243.3176816535
 20
14.2487382144
 30
0.0
 40
2.6458333333
 41
0.0
 71
     2
 72
     1
  1
Steel
  7
SLDTEXTSTYLE0
 73
     1
 44
1.0
  0
MTEXT
  5
AB
330
1F
100
AcDbEntity
  8
0
  6
Continuous
 62
     7
370
     0
100
AcDbMText
 10
2.3602431025
 20
14.9510425587
 30
0.0
 40
3.5
 41
0.0
 71
     2
 72
     1
  1
A
  7
SLDTEXTSTYLE0
 73
     1
 44
1.0
  0
MTEXT
  5
AC
330
1F
100
AcDbEntity
  8
0
  6
Continuous
 62
     7
370
     0
100
AcDbMText
 10
294.3602431025
 20
14.9510425587
 30
0.0
 40
3.5
 41
0.0
 71
     2
 72
     1
  1
A
  7
SLDTEXTSTYLE0
 73
     1
 44
1.0
  0
MTEXT
  5
AD
330
1F
100
AcDbEntity
  8
0
  6
Continuous
 62
     7
370
     0
100
AcDbMText
 10
2.4732638421
 20
41.2010425587
 30
0.0
 40
3.5
 41
0.0
 71
     2
 72
     1
  1
B
  7
SLDTEXTSTYLE0
 73
     1
 44
1.0
  0
MTEXT
  5
AE
330
1F
100
AcDbEntity
  8
0
  6
Continuous
 62
     7
370
     0
100
AcDbMText
 10
294.4732638421
 20
41.2010425587
 30
0.0
 40
3.5
 41
0.0
 71
     2
 72
     1
  1
B
  7
SLDTEXTSTYLE0
 73
     1
 44
1.0
  0
MTEXT
  5
AF
330
1F
100
AcDbEntity
  8
0
  6
Continuous
 62
     7
370
     0
100
AcDbMText
 10
2.4635417052
 20
67.4510425587
 30
0.0
 40
3.5
 41
0.0
 71
     2
 72
     1
  1
C
  7
SLDTEXTSTYLE0
 73
     1
 44
1.0
  0
MTEXT
  5
B0
330
1F
100
AcDbEntity
  8
0
  6
Continuous
 62
     7
370
     0
100
AcDbMText
 10
294.4635417052
 20
67.4510425587
 30
0.0
 40
3.5
 41
0.0
 71
     2
 72
     1
  1
C
  7
SLDTEXTSTYLE0
 73
     1
 44
1.0
  0
MTEXT
  5
B1
330
1F
100
AcDbEntity
  8
0
  6
Continuous
 62
     7
370
     0
100
AcDbMText
 10
2.4598957933
 20
93.7010425587
 30
0.0
 40
3.5
 41
0.0
 71
     2
 72
     1
  1
D
  7
SLDTEXTSTYLE0
 73
     1
 44
1.0
  0
MTEXT
  5
B2
330
1F
100
AcDbEntity
  8
0
  6
Continuous
 62
     7
370
     0
100
AcDbMText
 10
294.4598957933
 20
93.7010425587
 30
0.0
 40
3.5
 41
0.0
 71
     2
 72
     1
  1
D
  7
SLDTEXTSTYLE0
 73
     1
 44
1.0
  0
MTEXT
  5
B3
330
1F
100
AcDbEntity
  8
0
  6
Continuous
 62
     7
370
     0
100
AcDbMText
 10
2.5060764262
 20
119.9510425587
 30
0.0
 40
3.5
 41
0.0
 71
     2
 72
     1
  1
E
  7
SLDTEXTSTYLE0
 73
     1
 44
1.0
  0
MTEXT
  5
B4
330
1F
100
AcDbEntity
  8
0
  6
Continuous
 62
     7
370
     0
100
AcDbMText
 10
294.5060764262
 20
119.9510425587
 30
0.0
 40
3.5
 41
0.0
 71
     2
 72
     1
  1
E
  7
SLDTEXTSTYLE0
 73
     1
 44
1.0
  0
MTEXT
  5
B5
330
1F
100
AcDbEntity
  8
0
  6
Continuous
 62
     7
370
     0
100
AcDbMText
 10
2.4635416269
 20
146.2010425587
 30
0.0
 40
3.5
 41
0.0
 71
     2
 72
     1
  1
F
  7
SLDTEXTSTYLE0
 73
     1
 44
1.0
  0
MTEXT
  5
B6
330
1F
100
AcDbEntity
  8
0
  6
Continuous
 62
     7
370
     0
100
AcDbMText
 10
294.4635416269
 20
146.2010425587
 30
0.0
 40
3.5
 41
0.0
 71
     2
 72
     1
  1
F
  7
SLDTEXTSTYLE0
 73
     1
 44
1.0
  0
MTEXT
  5
B7
330
1F
100
AcDbEntity
  8
0
  6
Continuous
 62
     7
370
     0
100
AcDbMText
 10
2.4890625216
 20
172.4510425587
 30
0.0
 40
3.5
 41
0.0
 71
     2
 72
     1
  1
G
  7
SLDTEXTSTYLE0
 73
     1
 44
1.0
  0
MTEXT
  5
B8
330
1F
100
AcDbEntity
  8
0
  6
Continuous
 62
     7
370
     0
100
AcDbMText
 10
294.4890625216
 20
172.4510425587
 30
0.0
 40
3.5
 41
0.0
 71
     2
 72
     1
  1
G
  7
SLDTEXTSTYLE0
 73
     1
 44
1.0
  0
MTEXT
  5
B9
330
1F
100
AcDbEntity
  8
0
  6
Continuous
 62
     7
370
     0
100
AcDbMText
 10
2.4914931124
 20
198.7010425587
 30
0.0
 40
3.5
 41
0.0
 71
     2
 72
     1
  1
H
  7
SLDTEXTSTYLE0
 73
     1
 44
1.0
  0
MTEXT
  5
BA
330
1F
100
AcDbEntity
  8
0
  6
Continuous
 62
     7
370
     0
100
AcDbMText
 10
294.4914931124
 20
198.7010425587
 30
0.0
 40
3.5
 41
0.0
 71
     2
 72
     1
  1
H
  7
SLDTEXTSTYLE0
 73
     1
 44
1.0
  0
MTEXT
  5
BB
330
1F
100
AcDbEntity
  8
0
  6
Continuous
 62
     7
370
     0
100
AcDbMText
 10
14.7795138065
 20
4.3260425587
 30
0.0
 40
3.5
 41
0.0
 71
     2
 72
     1
  1
10
  7
SLDTEXTSTYLE0
 73
     1
 44
1.0
  0
MTEXT
  5
BC
330
1F
100
AcDbEntity
  8
0
  6
Continuous
 62
     7
370
     0
100
AcDbMText
 10
14.7795138065
 20
209.3260425587
 30
0.0
 40
3.5
 41
0.0
 71
     2
 72
     1
  1
10
  7
SLDTEXTSTYLE0
 73
     1
 44
1.0
  0
MTEXT
  5
BD
330
1F
100
AcDbEntity
  8
0
  6
Continuous
 62
     7
370
     0
100
AcDbMText
 10
44.5147569032
 20
4.3260425587
 30
0.0
 40
3.5
 41
0.0
 71
     2
 72
     1
  1
9
  7
SLDTEXTSTYLE0
 73
     1
 44
1.0
  0
MTEXT
  5
BE
330
1F
100
AcDbEntity
  8
0
  6
Continuous
 62
     7
370
     0
100
AcDbMText
 10
44.5147569032
 20
209.3260425587
 30
0.0
 40
3.5
 41
0.0
 71
     2
 72
     1
  1
9
  7
SLDTEXTSTYLE0
 73
     1
 44
1.0
  0
MTEXT
  5
BF
330
1F
100
AcDbEntity
  8
0
  6
Continuous
 62
     7
370
     0
100
AcDbMText
 10
74.2147569032
 20
4.3260425587
 30
0.0
 40
3.5
 41
0.0
 71
     2
 72
     1
  1
8
  7
SLDTEXTSTYLE0
 73
     1
 44
1.0
  0
MTEXT
  5
C0
330
1F
100
AcDbEntity
  8
0
  6
Continuous
 62
     7
370
     0
100
AcDbMText
 10
74.2147569032
 20
209.3260425587
 30
0.0
 40
3.5
 41
0.0
 71
     2
 72
     1
  1
8
  7
SLDTEXTSTYLE0
 73
     1
 44
1.0
  0
MTEXT
  5
C1
330
1F
100
AcDbEntity
  8
0
  6
Continuous
 62
     7
370
     0
100
AcDbMText
 10
103.9147569032
 20
4.3260425587
 30
0.0
 40
3.5
 41
0.0
 71
     2
 72
     1
  1
7
  7
SLDTEXTSTYLE0
 73
     1
 44
1.0
  0
MTEXT
  5
C2
330
1F
100
AcDbEntity
  8
0
  6
Continuous
 62
     7
370
     0
100
AcDbMText
 10
103.9147569032
 20
209.3260425587
 30
0.0
 40
3.5
 41
0.0
 71
     2
 72
     1
  1
7
  7
SLDTEXTSTYLE0
 73
     1
 44
1.0
  0
MTEXT
  5
C3
330
1F
100
AcDbEntity
  8
0
  6
Continuous
 62
     7
370
     0
100
AcDbMText
 10
133.6147569032
 20
4.3260425587
 30
0.0
 40
3.5
 41
0.0
 71
     2
 72
     1
  1
6
  7
SLDTEXTSTYLE0
 73
     1
 44
1.0
  0
MTEXT
  5
C4
330
1F
100
AcDbEntity
  8
0
  6
Continuous
 62
     7
370
     0
100
AcDbMText
 10
133.6147569032
 20
209.3260425587
 30
0.0
 40
3.5
 41
0.0
 71
     2
 72
     1
  1
6
  7
SLDTEXTSTYLE0
 73
     1
 44
1.0
  0
MTEXT
  5
C5
330
1F
100
AcDbEntity
  8
0
  6
Continuous
 62
     7
370
     0
100
AcDbMText
 10
163.3147569032
 20
4.3260425587
 30
0.0
 40
3.5
 41
0.0
 71
     2
 72
     1
  1
5
  7
SLDTEXTSTYLE0
 73
     1
 44
1.0
  0
MTEXT
  5
C6
330
1F
100
AcDbEntity
  8
0
  6
Continuous
 62
     7
370
     0
100
AcDbMText
 10
163.3147569032
 20
209.3260425587
 30
0.0
 40
3.5
 41
0.0
 71
     2
 72
     1
  1
5
  7
SLDTEXTSTYLE0
 73
     1
 44
1.0
  0
MTEXT
  5
C7
330
1F
100
AcDbEntity
  8
0
  6
Continuous
 62
     7
370
     0
100
AcDbMText
 10
193.0147569032
 20
4.3260425587
 30
0.0
 40
3.5
 41
0.0
 71
     2
 72
     1
  1
4
  7
SLDTEXTSTYLE0
 73
     1
 44
1.0
  0
MTEXT
  5
C8
330
1F
100
AcDbEntity
  8
0
  6
Continuous
 62
     7
370
     0
100
AcDbMText
 10
193.0147569032
 20
209.3260425587
 30
0.0
 40
3.5
 41
0.0
 71
     2
 72
     1
  1
4
  7
SLDTEXTSTYLE0
 73
     1
 44
1.0
  0
MTEXT
  5
C9
330
1F
100
AcDbEntity
  8
0
  6
Continuous
 62
     7
370
     0
100
AcDbMText
 10
222.7147569032
 20
4.3260425587
 30
0.0
 40
3.5
 41
0.0
 71
     2
 72
     1
  1
3
  7
SLDTEXTSTYLE0
 73
     1
 44
1.0
  0
MTEXT
  5
CA
330
1F
100
AcDbEntity
  8
0
  6
Continuous
 62
     7
370
     0
100
AcDbMText
 10
222.7147569032
 20
209.3260425587
 30
0.0
 40
3.5
 41
0.0
 71
     2
 72
     1
  1
3
  7
SLDTEXTSTYLE0
 73
     1
 44
1.0
  0
MTEXT
  5
CB
330
1F
100
AcDbEntity
  8
0
  6
Continuous
 62
     7
370
     0
100
AcDbMText
 10
252.4147569032
 20
4.3260425587
 30
0.0
 40
3.5
 41
0.0
 71
     2
 72
     1
  1
2
  7
SLDTEXTSTYLE0
 73
     1
 44
1.0
  0
MTEXT
  5
CC
330
1F
100
AcDbEntity
  8
0
  6
Continuous
 62
     7
370
     0
100
AcDbMText
 10
252.4147569032
 20
209.3260425587
 30
0.0
 40
3.5
 41
0.0
 71
     2
 72
     1
  1
2
  7
SLDTEXTSTYLE0
 73
     1
 44
1.0
  0
MTEXT
  5
CD
330
1F
100
AcDbEntity
  8
0
  6
Continuous
 62
     7
370
     0
100
AcDbMText
 10
282.1147569032
 20
4.3260425587
 30
0.0
 40
3.5
 41
0.0
 71
     2
 72
     1
  1
1
  7
SLDTEXTSTYLE0
 73
     1
 44
1.0
  0
MTEXT
  5
CE
330
1F
100
AcDbEntity
  8
0
  6
Continuous
 62
     7
370
     0
100
AcDbMText
 10
282.1147569032
 20
209.3260425587
 30
0.0
 40
3.5
 41
0.0
 71
     2
 72
     1
  1
1
  7
SLDTEXTSTYLE0
 73
     1
 44
1.0
  0
MTEXT
  5
CF
330
1F
100
AcDbEntity
  8
0
  6
Continuous
 62
     7
370
     0
100
AcDbMText
 10
257.5521969648
 20
14.2487382144
 30
0.0
 40
2.6458333333
 41
0.0
 71
     1
 72
     1
  1
Matte Black
  7
SLDTEXTSTYLE0
 73
     1
 44
1.0
  0
MTEXT
  5
D0
330
1F
100
AcDbEntity
  8
0
  6
Continuous
 62
     7
370
     0
100
AcDbMText
 10
282.0955152331
 20
16.4819349329
 30
0.0
 40
1.5
 41
0.0
 71
     1
 72
     1
  1
REVISION:
  7
SLDTEXTSTYLE0
 73
     1
 44
1.0
  0
MTEXT
  5
D1
330
1F
100
AcDbEntity
  8
0
  6
Continuous
 62
     7
370
     0
100
AcDbMText
 10
285.4301963564
 20
14.0966073606
 30
0.0
 40
2.6458333333
 41
0.0
 71
     1
 72
     1
  1
A
  7
SLDTEXTSTYLE0
 73
     1
 44
1.0
  0
INSERT
  5
E3
330
1F
100
AcDbEntity
  8
FORMAT
  6
Continuous
370
    18
100
AcDbBlockReference
  2
SW_REVISION_CLOUD_0
 10
15.9766105464
 20
100.2884082963
 30
0.0
  0
ARC
  5
E4
330
1F
100
AcDbEntity
  8
0
  6
Continuous
 62
     7
370
    25
100
AcDbCircle
 10
52.2653206184
 20
60.6254304444
 30
0.0
 40
0.75
100
AcDbArc
 50
180.0
 51
270.0
  0
LINE
  5
E5
330
1F
100
AcDbEntity
  8
0
  6
Continuous
 62
     7
370
    25
100
AcDbLine
 10
52.2653206184
 20
59.8754304444
 30
0.0
 11
152.2653206184
 21
59.8754304444
 31
0.0
  0
ARC
  5
E6
330
1F
100
AcDbEntity
  8
0
  6
Continuous
 62
     7
370
    25
100
AcDbCircle
 10
152.2653206184
 20
60.6254304444
 30
0.0
 40
0.75
100
AcDbArc
 50
270.0
 51
0.0
  0
LINE
  5
E7
330
1F
100
AcDbEntity
  8
0
  6
Continuous
 62
     7
370
    25
100
AcDbLine
 10
153.0153206184
 20
60.6254304444
 30
0.0
 11
153.0153206184
 21
152.1254304444
 31
0.0
  0
ARC
  5
E8
330
1F
100
AcDbEntity
  8
0
  6
Continuous
 62
     7
370
    25
100
AcDbCircle
 10
152.2653206184
 20
152.1254304444
 30
0.0
 40
0.75
100
AcDbArc
 50
0.0
 51
90.0
  0
LINE
  5
E9
330
1F
100
AcDbEntity
  8
0
  6
Continuous
 62
     7
370
    25
100
AcDbLine
 10
152.2653206184
 20
152.8754304444
 30
0.0
 11
52.2653206184
 21
152.8754304444
 31
0.0
  0
ARC
  5
EA
330
1F
100
AcDbEntity
  8
0
  6
Continuous
 62
     7
370
    25
100
AcDbCircle
 10
52.2653206184
 20
152.1254304444
 30
0.0
 40
0.75
100
AcDbArc
 50
90.0
 51
180.0
  0
LINE
  5
EB
330
1F
100
AcDbEntity
  8
0
  6
Continuous
 62
     7
370
    25
100
AcDbLine
 10
51.5153206184
 20
152.1254304444
 30
0.0
 11
51.5153206184
 21
60.6254304444
 31
0.0
  0
ARC
  5
EC
330
1F
100
AcDbEntity
  8
0
  6
Continuous
 62
     7
370
    25
100
AcDbCircle
 10
164.0153206184
 20
51.8754304444
 30
0.0
 40
0.5
100
AcDbArc
 50
270.0
 51
0.0
  0
LINE
  5
ED
330
1F
100
AcDbEntity
  8
0
  6
Continuous
 62
     7
370
    25
100
AcDbLine
 10
40.5153206184
 20
51.3754304444
 30
0.0
 11
164.0153206184
 21
51.3754304444
 31
0.0
  0
ARC
  5
EE
330
1F
100
AcDbEntity
  8
0
  6
Continuous
 62
     7
370
    25
100
AcDbCircle
 10
40.5153206184
 20
51.8754304444
 30
0.0
 40
0.5
100
AcDbArc
 50
180.0
 51
270.0
  0
LINE
  5
EF
330
1F
100
AcDbEntity
  8
0
  6
Continuous
 62
     7
370
    25
100
AcDbLine
 10
40.0153206184
 20
165.3754304444
 30
0.0
 11
40.0153206184
 21
51.8754304444
 31
0.0
  0
ARC
  5
F0
330
1F
100
AcDbEntity
  8
0
  6
Continuous
 62
     7
370
    25
100
AcDbCircle
 10
40.5153206184
 20
165.3754304444
 30
0.0
 40
0.5
100
AcDbArc
 50
90.0
 51
180.0
  0
LINE
  5
F1
330
1F
100
AcDbEntity
  8
0
  6
Continuous
 62
     7
370
    25
100
AcDbLine
 10
164.0153206184
 20
165.8754304444
 30
0.0
 11
40.5153206184
 21
165.8754304444
 31
0.0
  0
ARC
  5
F2
330
1F
100
AcDbEntity
  8
0
  6
Continuous
 62
     7
370
    25
100
AcDbCircle
 10
164.0153206184
 20
165.3754304444
 30
0.0
 40
0.5
100
AcDbArc
 50
360.0
 51
90.0
  0
LINE
  5
F3
330
1F
100
AcDbEntity
  8
0
  6
Continuous
 62
     7
370
    25
100
AcDbLine
 10
164.5153206184
 20
51.8754304444
 30
0.0
 11
164.5153206184
 21
165.3754304444
 31
0.0
  0
CIRCLE
  5
F4
330
1F
100
AcDbEntity
  8
0
  6
Continuous
 62
     7
370
    25
100
AcDbCircle
 10
72.5153206184
 20
163.3754304444
 30
0.0
 40
0.5250000000000057
  0
CIRCLE
  5
F5
330
1F
100
AcDbEntity
  8
0
  6
Continuous
 62
     7
370
    25
100
AcDbCircle
 10
132.0153206184
 20
163.3754304444
 30
0.0
 40
0.5250000000000057
  0
CIRCLE
  5
F6
330
1F
100
AcDbEntity
  8
0
  6
Continuous
 62
     7
370
    25
100
AcDbCircle
 10
162.0153206184
 20
135.8754304444
 30
0.0
 40
0.5250000000000057
  0
CIRCLE
  5
F7
330
1F
100
AcDbEntity
  8
0
  6
Continuous
 62
     7
370
    25
100
AcDbCircle
 10
162.0153206184
 20
81.3754304444
 30
0.0
 40
0.5249999999999915
  0
CIRCLE
  5
F8
330
1F
100
AcDbEntity
  8
0
  6
Continuous
 62
     7
370
    25
100
AcDbCircle
 10
132.0153206184
 20
53.8754304444
 30
0.0
 40
0.5249999999999844
  0
CIRCLE
  5
F9
330
1F
100
AcDbEntity
  8
0
  6
Continuous
 62
     7
370
    25
100
AcDbCircle
 10
72.5153206184
 20
53.8754304444
 30
0.0
 40
0.5249999999999986
  0
CIRCLE
  5
FA
330
1F
100
AcDbEntity
  8
0
  6
Continuous
 62
     7
370
    25
100
AcDbCircle
 10
42.5153206184
 20
81.3754304444
 30
0.0
 40
0.5249999999999915
  0
CIRCLE
  5
FB
330
1F
100
AcDbEntity
  8
0
  6
Continuous
 62
     7
370
    25
100
AcDbCircle
 10
42.5153206184
 20
135.8754304444
 30
0.0
 40
0.5249999999999773
  0
LINE
  5
FC
330
1F
100
AcDbEntity
  8
0
  6
Continuous
 62
     7
370
    25
100
AcDbLine
 10
49.8028206184
 20
131.0504304443
 30
0.0
 11
49.8028206184
 21
135.3754304443
 31
0.0
  0
LINE
  5
FD
330
1F
100
AcDbEntity
  8
0
  6
Continuous
 62
     7
370
    25
100
AcDbLine
 10
49.8028206184
 20
135.3754304443
 30
0.0
 11
49.3528206184
 21
135.3754304443
 31
0.0
  0
LINE
  5
FE
330
1F
100
AcDbEntity
  8
0
  6
Continuous
 62
     7
370
    25
100
AcDbLine
 10
49.3528206184
 20
135.3754304443
 30
0.0
 11
49.3528206184
 21
131.0504304443
 31
0.0
  0
LINE
  5
FF
330
1F
100
AcDbEntity
  8
0
  6
Continuous
 62
     7
370
    25
100
AcDbLine
 10
49.3528206184
 20
131.0504304443
 30
0.0
 11
49.8028206184
 21
131.0504304443
 31
0.0
  0
LINE
  5
100
330
1F
100
AcDbEntity
  8
0
  6
Continuous
 62
     7
370
    25
100
AcDbLine
 10
49.8028206184
 20
73.5504304443
 30
0.0
 11
49.8028206184
 21
77.8754304443
 31
0.0
  0
LINE
  5
101
330
1F
100
AcDbEntity
  8
0
  6
Continuous
 62
     7
370
    25
100
AcDbLine
 10
49.8028206184
 20
77.8754304443
 30
0.0
 11
49.3528206184
 21
77.8754304443
 31
0.0
  0
LINE
  5
102
330
1F
100
AcDbEntity
  8
0
  6
Continuous
 62
     7
370
    25
100
AcDbLine
 10
49.3528206184
 20
77.8754304443
 30
0.0
 11
49.3528206184
 21
73.5504304443
 31
0.0
  0
LINE
  5
103
330
1F
100
AcDbEntity
  8
0
  6
Continuous
 62
     7
370
    25
100
AcDbLine
 10
49.3528206184
 20
73.5504304443
 30
0.0
 11
49.8028206184
 21
73.5504304443
 31
0.0
  0
LINE
  5
104
330
1F
100
AcDbEntity
  8
0
  6
Continuous
 62
     7
370
    25
100
AcDbLine
 10
154.7278206184
 20
73.5504304443
 30
0.0
 11
155.1778206184
 21
73.5504304443
 31
0.0
  0
LINE
  5
105
330
1F
100
AcDbEntity
  8
0
  6
Continuous
 62
     7
370
    25
100
AcDbLine
 10
155.1778206184
 20
73.5504304443
 30
0.0
 11
155.1778206184
 21
77.8754304443
 31
0.0
  0
LINE
  5
106
330
1F
100
AcDbEntity
  8
0
  6
Continuous
 62
     7
370
    25
100
AcDbLine
 10
155.1778206184
 20
77.8754304443
 30
0.0
 11
154.7278206184
 21
77.8754304443
 31
0.0
  0
LINE
  5
107
330
1F
100
AcDbEntity
  8
0
  6
Continuous
 62
     7
370
    25
100
AcDbLine
 10
154.7278206184
 20
77.8754304443
 30
0.0
 11
154.7278206184
 21
73.5504304443
 31
0.0
  0
LINE
  5
108
330
1F
100
AcDbEntity
  8
0
  6
Continuous
 62
     7
370
    25
100
AcDbLine
 10
154.7278206184
 20
131.0504304443
 30
0.0
 11
155.1778206184
 21
131.0504304443
 31
0.0
  0
LINE
  5
109
330
1F
100
AcDbEntity
  8
0
  6
Continuous
 62
     7
370
    25
100
AcDbLine
 10
155.1778206184
 20
131.0504304443
 30
0.0
 11
155.1778206184
 21
135.3754304443
 31
0.0
  0
LINE
  5
10A
330
1F
100
AcDbEntity
  8
0
  6
Continuous
 62
     7
370
    25
100
AcDbLine
 10
155.1778206184
 20
135.3754304443
 30
0.0
 11
154.7278206184
 21
135.3754304443
 31
0.0
  0
LINE
  5
10B
330
1F
100
AcDbEntity
  8
0
  6
Continuous
 62
     7
370
    25
100
AcDbLine
 10
154.7278206184
 20
135.3754304443
 30
0.0
 11
154.7278206184
 21
131.0504304443
 31
0.0
  0
DIMENSION
  5
10C
330
1F
100
AcDbEntity
  8
0
  6
Continuous
 62
     7
370
    18
100
AcDbDimension
  2
_D
 10
164.5153206184
 20
35.3754304444
 30
0.0
 11
102.2653206184
 21
35.3754304444
 31
0.0
 70
   160
  1
<>
 71
     2
 42
-1.0
  3
SLDDIMSTYLE0
100
AcDbAlignedDimension
 13
40.0153206184
 23
51.8754304444
 33
0.0
 14
164.5153206184
 24
51.8754304444
 34
0.0
 50
0.0
100
AcDbRotatedDimension
  0
DIMENSION
  5
117
330
1F
100
AcDbEntity
  8
0
  6
Continuous
 62
     7
370
    18
100
AcDbDimension
  2
_D_1
 10
18.0153206184
 20
51.3754304444
 30
0.0
 11
18.0153206184
 21
101.2711341253
 31
0.0
 70
   160
  1
<>
 71
     2
 42
-1.0
  3
SLDDIMSTYLE0
100
AcDbAlignedDimension
 13
40.5153206184
 23
165.8754304444
 33
0.0
 14
40.5153206184
 24
51.3754304444
 34
0.0
 50
90.0
100
AcDbRotatedDimension
  0
DIMENSION
  5
121
330
1F
100
AcDbEntity
  8
0
  6
Continuous
 62
     7
370
    18
100
AcDbDimension
  2
_D_2
 10
164.0153206184
 20
165.3754304444
 30
0.0
 11
177.2276185024
 21
178.5877283284
 31
0.0
 70
   164
  1
<>
 71
     1
 42
-1.0
  3
SLDDIMSTYLE1
100
AcDbRadialDimension
 15
164.368874009
 25
165.728983835
 35
0.0
 40
0.0
  0
DIMENSION
  5
12A
330
1F
100
AcDbEntity
  8
0
  6
Continuous
 62
     7
370
    18
100
AcDbDimension
  2
_D_3
 10
152.2653206184
 20
152.1254304444
 30
0.0
 11
182.198860489
 21
169.407571973
 31
0.0
 70
   164
  1
<>
 71
     1
 42
-1.0
  3
SLDDIMSTYLE1
100
AcDbRadialDimension
 15
152.9148396712
 25
152.5004304444
 35
0.0
 40
0.0
  0
DIMENSION
  5
132
330
1F
100
AcDbEntity
  8
0
  6
Continuous
 62
     7
370
    18
100
AcDbDimension
  2
_D_4
 10
30.0153206184
 20
59.8754304444
 30
0.0
 11
30.0153206184
 21
106.3754304444
 31
0.0
 70
   160
  1
<>
 71
     2
 42
-1.0
  3
SLDDIMSTYLE0
100
AcDbAlignedDimension
 13
52.2653206184
 23
152.8754304444
 33
0.0
 14
52.2653206184
 24
59.8754304444
 34
0.0
 50
90.0
100
AcDbRotatedDimension
  0
DIMENSION
  5
13C
330
1F
100
AcDbEntity
  8
0
  6
Continuous
 62
     7
370
    18
100
AcDbDimension
  2
_D_5
 10
153.0153206184
 20
41.3754304444
 30
0.0
 11
102.2653206184
 21
41.3754304444
 31
0.0
 70
   160
  1
<>
 71
     2
 42
-1.0
  3
SLDDIMSTYLE0
100
AcDbAlignedDimension
 13
51.5153206184
 23
60.6254304444
 33
0.0
 14
153.0153206184
 24
60.6254304444
 34
0.0
100
AcDbRotatedDimension
  0
DIMENSION
  5
146
330
1F
100
AcDbEntity
  8
0
  6
Continuous
 62
     7
370
    18
100
AcDbDimension
  2
_D_6
 10
30.0153206184
 20
163.3754304444
 30
0.0
 11
30.0153206184
 21
179.3372364012
 31
0.0
 70
   160
  1
<>
 71
     2
 42
-1.0
  3
SLDDIMSTYLE2
100
AcDbAlignedDimension
 13
40.5153206184
 23
165.8754304444
 33
0.0
 14
71.3653206184
 24
163.3754304444
 34
0.0
 50
90.0
100
AcDbRotatedDimension
  0
DIMENSION
  5
153
330
1F
100
AcDbEntity
  8
0
  6
Continuous
 62
     7
370
    18
100
AcDbDimension
  2
_D_7
 10
72.1858259249
 20
162.9667028493
 30
0.0
 11
84.3947855578
 21
178.1115231318
 31
0.0
 70
   163
  1
<>
 71
     1
 42
-1.0
  3
SLDDIMSTYLE3
100
AcDbDiametricDimension
 15
72.8448153119
 25
163.7841580395
 35
0.0
 40
0.0
  0
DIMENSION
  5
160
330
1F
100
AcDbEntity
  8
0
  6
Continuous
 62
     7
370
    18
100
AcDbDimension
  2
_D_8
 10
155.1778206184
 20
41.3754304444
 30
0.0
 11
177.9771265752
 21
41.3754304444
 31
0.0
 70
   160
  1
<>
 71
     2
 42
-1.0
  3
SLDDIMSTYLE4
100
AcDbAlignedDimension
 13
164.5153206184
 23
51.8754304444
 33
0.0
 14
155.1778206184
 24
73.5504304443
 34
0.0
 50
0.0
100
AcDbRotatedDimension
  0
DIMENSION
  5
16C
330
1F
100
AcDbEntity
  8
0
  6
Continuous
 62
     7
370
    18
100
AcDbDimension
  2
_D_9
 10
154.7278206184
 20
47.0714913338
 30
0.0
 11
177.9771265752
 21
47.0714913338
 31
0.0
 70
   160
  1
<>
 71
     2
 42
-1.0
  3
SLDDIMSTYLE2
100
AcDbAlignedDimension
 13
155.1778206184
 23
73.5504304443
 33
0.0
 14
154.7278206184
 24
73.5504304443
 34
0.0
100
AcDbRotatedDimension
  0
DIMENSION
  5
178
330
1F
100
AcDbEntity
  8
0
  6
Continuous
 62
     7
370
    18
100
AcDbDimension
  2
_D_10
 10
186.5153206184
 20
51.3754304444
 30
0.0
 11
186.5153206184
 21
62.4629304444
 31
0.0
 70
   160
  1
<>
 71
     2
 42
-1.0
  3
SLDDIMSTYLE2
100
AcDbAlignedDimension
 13
155.1778206184
 23
73.5504304443
 33
0.0
 14
164.0153206184
 24
51.3754304444
 34
0.0
 50
90.0
100
AcDbRotatedDimension
  0
DIMENSION
  5
184
330
1F
100
AcDbEntity
  8
0
  6
Continuous
 62
     7
370
    18
100
AcDbDimension
  2
_D_11
 10
174.5153206184
 20
77.8754304443
 30
0.0
 11
174.5153206184
 21
60.0886244875
 31
0.0
 70
   160
  1
<>
 71
     2
 42
-1.0
  3
SLDDIMSTYLE2
100
AcDbAlignedDimension
 13
155.1778206184
 23
73.5504304443
 33
0.0
 14
155.1778206184
 24
77.8754304443
 34
0.0
 50
90.0
100
AcDbRotatedDimension
  0
DIMENSION
  5
190
330
1F
100
AcDbEntity
  8
0
  6
Continuous
 62
     7
370
    18
100
AcDbDimension
  2
_D_12
 10
174.5153206184
 20
131.0504304443
 30
0.0
 11
174.5153206184
 21
104.4629304443
 31
0.0
 70
   160
  1
<>
 71
     2
 42
-1.0
  3
SLDDIMSTYLE0
100
AcDbAlignedDimension
 13
155.1778206184
 23
77.8754304443
 33
0.0
 14
155.1778206184
 24
131.0504304443
 34
0.0
 50
90.0
100
AcDbRotatedDimension
  0
DIMENSION
  5
19A
330
1F
100
AcDbEntity
  8
0
  6
Continuous
 62
     7
370
    18
100
AcDbDimension
  2
_D_13
 10
24.0153206184
 20
165.8754304444
 30
0.0
 11
24.0153206184
 21
179.3372364012
 31
0.0
 70
   160
  1
<>
 71
     2
 42
-1.0
  3
SLDDIMSTYLE0
100
AcDbAlignedDimension
 13
52.2653206184
 23
152.8754304444
 33
0.0
 14
40.5153206184
 24
165.8754304444
 34
0.0
 50
90.0
100
AcDbRotatedDimension
  0
INSERT
  5
1B0
330
1F
100
AcDbEntity
  8
0
  6
Continuous
 62
     7
370
     0
100
AcDbBlockReference
  2
SW_CENTERMARKSYMBOL_0
 10
72.5153206184
 20
163.3754304444
 30
0.0
  0
INSERT
  5
1BC
330
1F
100
AcDbEntity
  8
0
  6
Continuous
 62
     7
370
     0
100
AcDbBlockReference
  2
SW_CENTERMARKSYMBOL_1
 10
132.0153206184
 20
163.3754304444
 30
0.0
  0
INSERT
  5
1C8
330
1F
100
AcDbEntity
  8
0
  6
Continuous
 62
     7
370
     0
100
AcDbBlockReference
  2
SW_CENTERMARKSYMBOL_2
 10
162.0153206184
 20
135.8754304444
 30
0.0
  0
INSERT
  5
1D4
330
1F
100
AcDbEntity
  8
0
  6
Continuous
 62
     7
370
     0
100
AcDbBlockReference
  2
SW_CENTERMARKSYMBOL_3
 10
162.0153206184
 20
81.3754304444
 30
0.0
  0
INSERT
  5
1E0
330
1F
100
AcDbEntity
  8
0
  6
Continuous
 62
     7
370
     0
100
AcDbBlockReference
  2
SW_CENTERMARKSYMBOL_4
 10
132.0153206184
 20
53.8754304444
 30
0.0
  0
INSERT
  5
1EC
330
1F
100
AcDbEntity
  8
0
  6
Continuous
 62
     7
370
     0
100
AcDbBlockReference
  2
SW_CENTERMARKSYMBOL_5
 10
72.5153206184
 20
53.8754304444
 30
0.0
  0
INSERT
  5
1F8
330
1F
100
AcDbEntity
  8
0
  6
Continuous
 62
     7
370
     0
100
AcDbBlockReference
  2
SW_CENTERMARKSYMBOL_6
 10
42.5153206184
 20
81.3754304444
 30
0.0
  0
INSERT
  5
204
330
1F
100
AcDbEntity
  8
0
  6
Continuous
 62
     7
370
     0
100
AcDbBlockReference
  2
SW_CENTERMARKSYMBOL_7
 10
42.5153206184
 20
135.8754304444
 30
0.0
  0
LINE
  5
205
330
1F
100
AcDbEntity
  8
0
  6
CENTERX2
 62
     7
 48
2.5
370
    18
100
AcDbLine
 10
102.2653206184
 20
49.8754304444
 30
0.0
 11
102.2653206184
 21
167.3754304444
 31
0.0
  0
INSERT
  5
219
330
1F
100
AcDbEntity
  8
FORMAT
  6
Continuous
370
    18
100
AcDbBlockReference
  2
SW_REVISION_CLOUD_1
 10
102.3744934786
 20
36.7721564602
 30
0.0
  0
LINE
  5
21A
330
1F
100
AcDbEntity
  8
0
  6
Continuous
 62
     7
370
    25
100
AcDbLine
 10
205.6957229766
 20
51.8754304444
 30
0.0
 11
205.8957229766
 21
51.8754304444
 31
0.0
  0
LINE
  5
21B
330
1F
100
AcDbEntity
  8
0
  6
Continuous
 62
     7
370
    25
100
AcDbLine
 10
205.8957229766
 20
165.3754304444
 30
0.0
 11
205.6957229766
 21
165.3754304444
 31
0.0
  0
LINE
  5
21C
330
1F
100
AcDbEntity
  8
0
  6
Continuous
 62
     7
370
    25
100
AcDbLine
 10
205.8957229766
 20
51.8754304444
 30
0.0
 11
205.8957229766
 21
165.3754304444
 31
0.0
  0
LINE
  5
21D
330
1F
100
AcDbEntity
  8
0
  6
Continuous
 62
     7
370
    25
100
AcDbLine
 10
205.6957229766
 20
51.8754304444
 30
0.0
 11
205.6957229766
 21
165.3754304444
 31
0.0
  0
LINE
  5
21E
330
1F
100
AcDbEntity
  8
0
  6
Continuous
 62
     7
370
    25
100
AcDbLine
 10
205.8957229766
 20
51.3754304444
 30
0.0
 11
205.6957229766
 21
51.3754304444
 31
0.0
  0
LINE
  5
21F
330
1F
100
AcDbEntity
  8
0
  6
Continuous
 62
     7
370
    25
100
AcDbLine
 10
205.8957229766
 20
51.8754304444
 30
0.0
 11
205.8957229766
 21
51.3754304444
 31
0.0
  0
LINE
  5
220
330
1F
100
AcDbEntity
  8
0
  6
Continuous
 62
     7
370
    25
100
AcDbLine
 10
205.6957229766
 20
51.3754304444
 30
0.0
 11
205.6957229766
 21
51.8754304444
 31
0.0
  0
LINE
  5
221
330
1F
100
AcDbEntity
  8
0
  6
Continuous
 62
     7
370
    25
100
AcDbLine
 10
205.6957229766
 20
165.8754304444
 30
0.0
 11
205.8957229766
 21
165.8754304444
 31
0.0
  0
LINE
  5
222
330
1F
100
AcDbEntity
  8
0
  6
Continuous
 62
     7
370
    25
100
AcDbLine
 10
205.8957229766
 20
165.8754304444
 30
0.0
 11
205.8957229766
 21
165.3754304444
 31
0.0
  0
LINE
  5
223
330
1F
100
AcDbEntity
  8
0
  6
Continuous
 62
     7
370
    25
100
AcDbLine
 10
205.6957229766
 20
165.3754304444
 30
0.0
 11
205.6957229766
 21
165.8754304444
 31
0.0
  0
DIMENSION
  5
224
330
1F
100
AcDbEntity
  8
0
  6
Continuous
 62
     7
370
    18
100
AcDbDimension
  2
_D_14
 10
205.8957229766
 20
46.341780508
 30
0.0
 11
231.2132866352
 21
46.341780508
 31
0.0
 70
   160
  1
<>
 71
     2
 42
-1.0
  3
SLDDIMSTYLE5
100
AcDbAlignedDimension
 13
205.6957229766
 23
51.3754304444
 33
0.0
 14
205.8957229766
 24
51.3754304444
 34
0.0
100
AcDbRotatedDimension
  0
LINE
  5
231
330
1F
100
AcDbEntity
  8
0
  6
Continuous
 62
     7
370
    25
100
AcDbLine
 10
289.29024899
 20
177.5129729538
 30
0.0
 11
289.29024899
 21
177.5782962187
 31
0.0
  0
LINE
  5
232
330
1F
100
AcDbEntity
  8
0
  6
Continuous
 62
     7
370
    25
100
AcDbLine
 10
221.8565261336
 20
179.2111124424
 30
0.0
 11
221.8565261336
 21
179.1457891774
 31
0.0
  0
ARC
  5
233
330
1F
100
AcDbEntity
  8
0
  6
Continuous
 62
     7
370
    25
100
AcDbCircle
 10
227.689147813
 20
178.7212675753
 30
0.0
 40
0.130984595050303
100
AcDbArc
 50
110.7834207995
 51
249.2165792005
  0
LINE
  5
234
330
1F
100
AcDbEntity
  8
0
  6
Continuous
 62
     7
370
    25
100
AcDbLine
 10
227.6426697049
 20
178.5988063585
 30
0.0
 11
255.9269409524
 21
162.270644122
 31
0.0
  0
ARC
  5
235
330
1F
100
AcDbEntity
  8
0
  6
Continuous
 62
     7
370
    25
100
AcDbCircle
 10
256.1390729867
 20
162.6800574475
 30
0.0
 40
0.4611065723736277
100
AcDbArc
 50
242.6096722366
 51
297.3903277634
  0
LINE
  5
236
330
1F
100
AcDbEntity
  8
0
  6
Continuous
 62
     7
370
    25
100
AcDbLine
 10
256.3512050211
 20
162.270644122
 30
0.0
 11
282.2313132125
 21
177.2109125684
 31
0.0
  0
ARC
  5
237
330
1F
100
AcDbEntity
  8
0
  6
Continuous
 62
     7
370
    25
100
AcDbCircle
 10
282.1848351045
 20
177.3333737852
 30
0.0
 40
0.130984595050303
100
AcDbArc
 50
290.7834207995
 51
69.2165792005
  0
LINE
  5
238
330
1F
100
AcDbEntity
  8
0
  6
Continuous
 62
     7
370
    25
100
AcDbLine
 10
282.2313132125
 20
177.4558350019
 30
0.0
 11
253.9470419651
 21
193.7839972384
 31
0.0
  0
ARC
  5
239
330
1F
100
AcDbEntity
  8
0
  6
Continuous
 62
     7
370
    25
100
AcDbCircle
 10
253.7349099307
 20
193.3745839129
 30
0.0
 40
0.4611065723733753
100
AcDbArc
 50
62.6096722366
 51
117.3903277634
  0
LINE
  5
23A
330
1F
100
AcDbEntity
  8
0
  6
Continuous
 62
     7
370
    25
100
AcDbLine
 10
253.5227778964
 20
193.7839972384
 30
0.0
 11
227.6426697049
 21
178.843728792
 31
0.0
  0
ARC
  5
23B
330
1F
100
AcDbEntity
  8
0
  6
Continuous
 62
     7
370
    25
100
AcDbCircle
 10
256.9876011242
 20
159.2371334862
 30
0.0
 40
0.3074043815824356
100
AcDbArc
 50
242.6096722366
 51
297.3903277634
  0
LINE
  5
23C
330
1F
100
AcDbEntity
  8
0
  6
Continuous
 62
     7
370
    25
100
AcDbLine
 10
221.9151047773
 20
179.1294716312
 30
0.0
 11
256.8461797679
 21
158.9641912692
 31
0.0
  0
ARC
  5
23D
330
1F
100
AcDbEntity
  8
0
  6
Continuous
 62
     7
370
    25
100
AcDbCircle
 10
221.9460901827
 20
179.2111124424
 30
0.0
 40
0.0873230633668565
100
AcDbArc
 50
110.7834207995
 51
249.2165792005
  0
LINE
  5
23E
330
1F
100
AcDbEntity
  8
0
  6
Continuous
 62
     7
370
    25
100
AcDbLine
 10
254.0177526432
 20
197.8252173919
 30
0.0
 11
221.9151047773
 21
179.2927532535
 31
0.0
  0
ARC
  5
23F
330
1F
100
AcDbEntity
  8
0
  6
Continuous
 62
     7
370
    25
100
AcDbCircle
 10
254.1591739994
 20
197.5522751749
 30
0.0
 40
0.3074043815819804
100
AcDbArc
 50
62.6096722366
 51
117.3903277634
  0
LINE
  5
240
330
1F
100
AcDbEntity
  8
0
  6
Continuous
 62
     7
370
    25
100
AcDbLine
 10
289.2316703463
 20
177.6599370299
 30
0.0
 11
254.3005953557
 21
197.8252173919
 31
0.0
  0
ARC
  5
241
330
1F
100
AcDbEntity
  8
0
  6
Continuous
 62
     7
370
    25
100
AcDbCircle
 10
289.2006849409
 20
177.5782962187
 30
0.0
 40
0.0873230633668061
100
AcDbArc
 50
290.7834207994
 51
69.2165792006
  0
LINE
  5
242
330
1F
100
AcDbEntity
  8
0
  6
Continuous
 62
     7
370
    25
100
AcDbLine
 10
257.1290224804
 20
158.9641912692
 30
0.0
 11
289.2316703463
 21
177.4966554075
 31
0.0
  0
LWPOLYLINE
  5
243
330
1F
100
AcDbEntity
  8
0
  6
Continuous
 62
     7
370
    25
100
AcDbPolyline
 90
       17
 70
   128
 43
0.0
 10
262.4959629496
 20
192.1062785686
 10
262.5640918529
 20
192.079999117
 10
262.6444553737
 20
192.0707710008
 10
262.7248188945
 20
192.079999117
 10
262.7929477977
 20
192.1062785686
 10
262.8384700755
 20
192.1456085473
 10
262.8544553737
 20
192.1920014203
 10
262.8384700755
 20
192.2383942934
 10
262.7929477977
 20
192.2777242721
 10
262.7248188945
 20
192.3040037237
 10
262.6444553737
 20
192.3132318399
 10
262.5640918529
 20
192.3040037237
 10
262.4959629496
 20
192.2777242721
 10
262.4504406718
 20
192.2383942934
 10
262.4344553737
 20
192.1920014203
 10
262.4504406718
 20
192.1456085473
 10
262.4959629496
 20
192.1062785686
  0
LWPOLYLINE
  5
244
330
1F
100
AcDbEntity
  8
0
  6
Continuous
 62
     7
370
    25
100
AcDbPolyline
 90
       17
 70
   128
 43
0.0
 10
279.62208919
 20
182.5624677414
 10
279.5539602867
 20
182.588747193
 10
279.4735967659
 20
182.5979753092
 10
279.3932332451
 20
182.588747193
 10
279.3251043419
 20
182.5624677414
 10
279.2795820641
 20
182.5231377627
 10
279.2635967659
 20
182.4767448897
 10
279.2795820641
 20
182.4303520166
 10
279.3251043419
 20
182.3910220379
 10
279.3932332451
 20
182.3647425863
 10
279.4735967659
 20
182.3555144701
 10
279.5539602867
 20
182.3647425863
 10
279.62208919
 20
182.3910220379
 10
279.6676114677
 20
182.4303520166
 10
279.6835967659
 20
182.4767448897
 10
279.6676114677
 20
182.5231377627
 10
279.62208919
 20
182.5624677414
  0
LWPOLYLINE
  5
245
330
1F
100
AcDbEntity
  8
0
  6
Continuous
 62
     7
370
    25
100
AcDbPolyline
 90
       17
 70
   128
 43
0.0
 10
280.3291959711
 20
173.1737744554
 10
280.2610670679
 20
173.200053907
 10
280.1807035471
 20
173.2092820232
 10
280.1003400263
 20
173.200053907
 10
280.032211123
 20
173.1737744554
 10
279.9866888453
 20
173.1344444768
 10
279.9707035471
 20
173.0880516037
 10
279.9866888453
 20
173.0416587306
 10
280.032211123
 20
173.002328752
 10
280.1003400263
 20
172.9760493004
 10
280.1807035471
 20
172.9668211842
 10
280.2610670679
 20
172.9760493004
 10
280.3291959711
 20
173.002328752
 10
280.3747182489
 20
173.0416587306
 10
280.3907035471
 20
173.0880516037
 10
280.3747182489
 20
173.1344444768
 10
280.3291959711
 20
173.1737744554
  0
LWPOLYLINE
  5
246
330
1F
100
AcDbEntity
  8
0
  6
Continuous
 62
     7
370
    25
100
AcDbPolyline
 90
       17
 70
   128
 43
0.0
 10
264.9142681413
 20
164.2749260366
 10
264.846139238
 20
164.3012054882
 10
264.7657757172
 20
164.3104336044
 10
264.6854121964
 20
164.3012054882
 10
264.6172832932
 20
164.2749260366
 10
264.5717610154
 20
164.2355960579
 10
264.5557757172
 20
164.1892031848
 10
264.5717610154
 20
164.1428103118
 10
264.6172832932
 20
164.1034803331
 10
264.6854121964
 20
164.0772008815
 10
264.7657757172
 20
164.0679727653
 10
264.846139238
 20
164.0772008815
 10
264.9142681413
 20
164.1034803331
 10
264.9597904191
 20
164.1428103118
 10
264.9757757172
 20
164.1892031848
 10
264.9597904191
 20
164.2355960579
 10
264.9142681413
 20
164.2749260366
  0
LWPOLYLINE
  5
247
330
1F
100
AcDbEntity
  8
0
  6
Continuous
 62
     7
370
    25
100
AcDbPolyline
 90
       17
 70
   128
 43
0.0
 10
248.650812174
 20
164.6831300925
 10
248.5826832707
 20
164.7094095441
 10
248.5023197499
 20
164.7186376603
 10
248.4219562291
 20
164.7094095441
 10
248.3538273259
 20
164.6831300925
 10
248.3083050481
 20
164.6438001138
 10
248.2923197499
 20
164.5974072407
 10
248.3083050481
 20
164.5510143677
 10
248.3538273259
 20
164.511684389
 10
248.4219562291
 20
164.4854049374
 10
248.5023197499
 20
164.4761768212
 10
248.5826832707
 20
164.4854049374
 10
248.650812174
 20
164.511684389
 10
248.6963344518
 20
164.5510143677
 10
248.7123197499
 20
164.5974072407
 10
248.6963344518
 20
164.6438001138
 10
248.650812174
 20
164.6831300925
  0
LWPOLYLINE
  5
248
330
1F
100
AcDbEntity
  8
0
  6
Continuous
 62
     7
370
    25
100
AcDbPolyline
 90
       17
 70
   128
 43
0.0
 10
231.5246859336
 20
174.2269409197
 10
231.5928148369
 20
174.2006614681
 10
231.6731783577
 20
174.1914333519
 10
231.7535418785
 20
174.2006614681
 10
231.8216707817
 20
174.2269409197
 10
231.8671930595
 20
174.2662708984
 10
231.8831783577
 20
174.3126637714
 10
231.8671930595
 20
174.3590566445
 10
231.8216707817
 20
174.3983866232
 10
231.7535418785
 20
174.4246660748
 10
231.6731783577
 20
174.433894191
 10
231.5928148369
 20
174.4246660748
 10
231.5246859336
 20
174.3983866232
 10
231.4791636559
 20
174.3590566445
 10
231.4631783577
 20
174.3126637714
 10
231.4791636559
 20
174.2662708984
 10
231.5246859336
 20
174.2269409197
  0
LWPOLYLINE
  5
249
330
1F
100
AcDbEntity
  8
0
  6
Continuous
 62
     7
370
    25
100
AcDbPolyline
 90
       17
 70
   128
 43
0.0
 10
230.8175791525
 20
183.6156342056
 10
230.8857080557
 20
183.5893547541
 10
230.9660715765
 20
183.5801266379
 10
231.0464350973
 20
183.5893547541
 10
231.1145640006
 20
183.6156342056
 10
231.1600862783
 20
183.6549641843
 10
231.1760715765
 20
183.7013570574
 10
231.1600862783
 20
183.7477499304
 10
231.1145640006
 20
183.7870799091
 10
231.0464350973
 20
183.8133593607
 10
230.9660715765
 20
183.8225874769
 10
230.8857080557
 20
183.8133593607
 10
230.8175791525
 20
183.7870799091
 10
230.7720568747
 20
183.7477499304
 10
230.7560715765
 20
183.7013570574
 10
230.7720568747
 20
183.6549641843
 10
230.8175791525
 20
183.6156342056
  0
LWPOLYLINE
  5
24A
330
1F
100
AcDbEntity
  8
0
  6
Continuous
 62
     7
370
    25
100
AcDbPolyline
 90
       17
 70
   128
 43
0.0
 10
246.2325069823
 20
192.5144826245
 10
246.3006358856
 20
192.4882031729
 10
246.3809994064
 20
192.4789750567
 10
246.4613629272
 20
192.4882031729
 10
246.5294918304
 20
192.5144826245
 10
246.5750141082
 20
192.5538126032
 10
246.5909994064
 20
192.6002054763
 10
246.5750141082
 20
192.6465983493
 10
246.5294918304
 20
192.685928328
 10
246.4613629272
 20
192.7122077796
 10
246.3809994064
 20
192.7214358958
 10
246.3006358856
 20
192.7122077796
 10
246.2325069823
 20
192.685928328
 10
246.1869847045
 20
192.6465983493
 10
246.1709994064
 20
192.6002054763
 10
246.1869847045
 20
192.5538126032
 10
246.2325069823
 20
192.5144826245
  0
LINE
  5
24B
330
1F
100
AcDbEntity
  8
0
  6
Continuous
 62
     7
370
    25
100
AcDbLine
 10
247.0774995858
 20
190.6224568254
 30
0.0
 11
248.3007943173
 21
191.3286498421
 31
0.0
  0
LINE
  5
24C
330
1F
100
AcDbEntity
  8
0
  6
Continuous
 62
     7
370
    25
100
AcDbLine
 10
248.3007943173
 20
191.3286498421
 30
0.0
 11
248.1735150967
 21
191.4021265721
 31
0.0
  0
LINE
  5
24D
330
1F
100
AcDbEntity
  8
0
  6
Continuous
 62
     7
370
    25
100
AcDbLine
 10
248.1735150967
 20
191.4021265721
 30
0.0
 11
246.9502203652
 21
190.6959335554
 31
0.0
  0
LINE
  5
24E
330
1F
100
AcDbEntity
  8
0
  6
Continuous
 62
     7
370
    25
100
AcDbLine
 10
246.9502203652
 20
190.6959335554
 30
0.0
 11
247.0774995858
 21
190.6224568254
 31
0.0
  0
LINE
  5
24F
330
1F
100
AcDbEntity
  8
0
  6
Continuous
 62
     7
370
    25
100
AcDbLine
 10
230.8140436185
 20
181.2337635394
 30
0.0
 11
232.03733835
 21
181.9399565561
 31
0.0
  0
LINE
  5
250
330
1F
100
AcDbEntity
  8
0
  6
Continuous
 62
     7
370
    25
100
AcDbLine
 10
232.03733835
 20
181.9399565561
 30
0.0
 11
231.9100591294
 21
182.0134332862
 31
0.0
  0
LINE
  5
251
330
1F
100
AcDbEntity
  8
0
  6
Continuous
 62
     7
370
    25
100
AcDbLine
 10
231.9100591294
 20
182.0134332862
 30
0.0
 11
230.6867643979
 21
181.3072402695
 31
0.0
  0
LINE
  5
252
330
1F
100
AcDbEntity
  8
0
  6
Continuous
 62
     7
370
    25
100
AcDbLine
 10
230.6867643979
 20
181.3072402695
 30
0.0
 11
230.8140436185
 21
181.2337635394
 31
0.0
  0
LINE
  5
253
330
1F
100
AcDbEntity
  8
0
  6
Continuous
 62
     7
370
    25
100
AcDbLine
 10
260.4913152249
 20
164.1014393128
 30
0.0
 11
260.6185944455
 21
164.0279625827
 31
0.0
  0
LINE
  5
254
330
1F
100
AcDbEntity
  8
0
  6
Continuous
 62
     7
370
    25
100
AcDbLine
 10
260.6185944455
 20
164.0279625827
 30
0.0
 11
261.841889177
 21
164.7341555995
 31
0.0
  0
LINE
  5
255
330
1F
100
AcDbEntity
  8
0
  6
Continuous
 62
     7
370
    25
100
AcDbLine
 10
261.841889177
 20
164.7341555995
 30
0.0
 11
261.7146099564
 21
164.8076323295
 31
0.0
  0
LINE
  5
256
330
1F
100
AcDbEntity
  8
0
  6
Continuous
 62
     7
370
    25
100
AcDbLine
 10
261.7146099564
 20
164.8076323295
 30
0.0
 11
260.4913152249
 21
164.1014393128
 31
0.0
  0
LINE
  5
257
330
1F
100
AcDbEntity
  8
0
  6
Continuous
 62
     7
370
    25
100
AcDbLine
 10
276.7547711922
 20
173.4901325988
 30
0.0
 11
276.8820504128
 21
173.4166558687
 31
0.0
  0
LINE
  5
258
330
1F
100
AcDbEntity
  8
0
  6
Continuous
 62
     7
370
    25
100
AcDbLine
 10
276.8820504128
 20
173.4166558687
 30
0.0
 11
278.1053451443
 21
174.1228488854
 31
0.0
  0
LINE
  5
259
330
1F
100
AcDbEntity
  8
0
  6
Continuous
 62
     7
370
    25
100
AcDbLine
 10
278.1053451443
 20
174.1228488854
 30
0.0
 11
277.9780659237
 21
174.1963256155
 31
0.0
  0
LINE
  5
25A
330
1F
100
AcDbEntity
  8
0
  6
Continuous
 62
     7
370
    25
100
AcDbLine
 10
277.9780659237
 20
174.1963256155
 30
0.0
 11
276.7547711922
 21
173.4901325988
 31
0.0
  0
LINE
  5
25B
330
1F
100
AcDbEntity
  8
0
  6
Continuous
 62
     7
370
    25
100
AcDbLine
 10
257.1290224804
 20
158.9641912692
 30
0.0
 11
257.1290224804
 21
158.8988680042
 31
0.0
  0
ARC
  5
25C
330
1F
100
AcDbEntity
  8
0
  6
Continuous
 62
     7
370
    25
100
AcDbCircle
 10
256.9876011242
 20
159.1718102212
 30
0.0
 40
0.3074043815821075
100
AcDbArc
 50
242.6096722366
 51
297.3903277634
  0
LINE
  5
25D
330
1F
100
AcDbEntity
  8
0
  6
Continuous
 62
     7
370
    25
100
AcDbLine
 10
256.8461797679
 20
158.8988680042
 30
0.0
 11
256.8461797679
 21
158.9641912692
 31
0.0
  0
LINE
  5
25E
330
1F
100
AcDbEntity
  8
0
  6
Continuous
 62
     7
370
    25
100
AcDbLine
 10
221.9151047773
 20
179.1294716312
 30
0.0
 11
221.9151047773
 21
179.0641483662
 31
0.0
  0
LINE
  5
25F
330
1F
100
AcDbEntity
  8
0
  6
Continuous
 62
     7
370
    25
100
AcDbLine
 10
221.9151047773
 20
179.0641483662
 30
0.0
 11
256.8461797679
 21
158.8988680042
 31
0.0
  0
LINE
  5
260
330
1F
100
AcDbEntity
  8
0
  6
Continuous
 62
     7
370
    25
100
AcDbLine
 10
289.2316703463
 20
177.4313321426
 30
0.0
 11
289.2316703463
 21
177.4966554075
 31
0.0
  0
LINE
  5
261
330
1F
100
AcDbEntity
  8
0
  6
Continuous
 62
     7
370
    25
100
AcDbLine
 10
257.1290224804
 20
158.8988680042
 30
0.0
 11
289.2316703463
 21
177.4313321426
 31
0.0
  0
LWPOLYLINE
  5
262
330
1F
100
AcDbEntity
  8
0
  6
Continuous
 62
     7
370
    25
100
AcDbPolyline
 90
        7
 70
   128
 43
0.0
 10
264.9142681413
 20
164.2096027716
 10
264.846139238
 20
164.2358822232
 10
264.7657757172
 20
164.2451103394
 10
264.6854121964
 20
164.2358822232
 10
264.6172832932
 20
164.2096027716
 10
264.5717610154
 20
164.1702727929
 10
264.5635408052
 20
164.1565415524
  0
LWPOLYLINE
  5
263
330
1F
100
AcDbEntity
  8
0
  6
Continuous
 62
     7
370
    25
100
AcDbPolyline
 90
        3
 70
   128
 43
0.0
 10
264.9680106293
 20
164.1565415524
 10
264.9597904191
 20
164.1702727929
 10
264.9142681413
 20
164.2096027716
  0
LINE
  5
264
330
1F
100
AcDbEntity
  8
0
  6
Continuous
 62
     7
370
    25
100
AcDbLine
 10
261.7146099564
 20
164.8076323295
 30
0.0
 11
261.7146099564
 21
164.7423090646
 31
0.0
  0
LINE
  5
265
330
1F
100
AcDbEntity
  8
0
  6
Continuous
 62
     7
370
    25
100
AcDbLine
 10
260.5478929621
 20
164.0687776803
 30
0.0
 11
261.7146099564
 21
164.7423090646
 31
0.0
  0
LWPOLYLINE
  5
266
330
1F
100
AcDbEntity
  8
0
  6
Continuous
 62
     7
370
    25
100
AcDbPolyline
 90
        7
 70
   128
 43
0.0
 10
248.650812174
 20
164.6178068275
 10
248.5826832707
 20
164.6440862791
 10
248.5023197499
 20
164.6533143953
 10
248.4219562291
 20
164.6440862791
 10
248.3538273259
 20
164.6178068275
 10
248.3083050481
 20
164.5784768488
 10
248.3000848379
 20
164.5647456083
  0
LWPOLYLINE
  5
267
330
1F
100
AcDbEntity
  8
0
  6
Continuous
 62
     7
370
    25
100
AcDbPolyline
 90
        3
 70
   128
 43
0.0
 10
248.704554662
 20
164.5647456083
 10
248.6963344518
 20
164.5784768488
 10
248.650812174
 20
164.6178068275
  0
LINE
  5
268
330
1F
100
AcDbEntity
  8
0
  6
Continuous
 62
     7
370
    25
100
AcDbLine
 10
261.7146099564
 20
164.7423090646
 30
0.0
 11
261.7853114398
 21
164.701493967
 31
0.0
  0
LWPOLYLINE
  5
269
330
1F
100
AcDbEntity
  8
0
  6
Continuous
 62
     7
370
    25
100
AcDbPolyline
 90
        7
 70
   128
 43
0.0
 10
280.3291959711
 20
173.1084511905
 10
280.2610670679
 20
173.1347306421
 10
280.1807035471
 20
173.1439587583
 10
280.1003400263
 20
173.1347306421
 10
280.032211123
 20
173.1084511905
 10
279.9866888453
 20
173.0691212118
 10
279.978468635
 20
173.0553899712
  0
LWPOLYLINE
  5
26A
330
1F
100
AcDbEntity
  8
0
  6
Continuous
 62
     7
370
    25
100
AcDbPolyline
 90
        3
 70
   128
 43
0.0
 10
280.3829384591
 20
173.0553899712
 10
280.3747182489
 20
173.0691212118
 10
280.3291959711
 20
173.1084511905
  0
LINE
  5
26B
330
1F
100
AcDbEntity
  8
0
  6
Continuous
 62
     7
370
    25
100
AcDbLine
 10
277.9780659237
 20
174.1963256155
 30
0.0
 11
277.9780659237
 21
174.1310023505
 31
0.0
  0
LINE
  5
26C
330
1F
100
AcDbEntity
  8
0
  6
Continuous
 62
     7
370
    25
100
AcDbLine
 10
276.8113489294
 20
173.4574709663
 30
0.0
 11
277.9780659237
 21
174.1310023505
 31
0.0
  0
LINE
  5
26D
330
1F
100
AcDbEntity
  8
0
  6
Continuous
 62
     7
370
    25
100
AcDbLine
 10
277.9780659237
 20
174.1310023505
 30
0.0
 11
278.0487674071
 21
174.0901872529
 31
0.0
  0
LWPOLYLINE
  5
26E
330
1F
100
AcDbEntity
  8
0
  6
Continuous
 62
     7
370
    25
100
AcDbPolyline
 90
        7
 70
   128
 43
0.0
 10
231.8216707817
 20
174.3330633582
 10
231.7535418785
 20
174.3593428098
 10
231.6731783577
 20
174.368570926
 10
231.5928148369
 20
174.3593428098
 10
231.5246859336
 20
174.3330633582
 10
231.4791636559
 20
174.2937333795
 10
231.4709434456
 20
174.280002139
  0
LWPOLYLINE
  5
26F
330
1F
100
AcDbEntity
  8
0
  6
Continuous
 62
     7
370
    25
100
AcDbPolyline
 90
        3
 70
   128
 43
0.0
 10
231.8754132697
 20
174.280002139
 10
231.8671930595
 20
174.2937333795
 10
231.8216707817
 20
174.3330633582
  0
LINE
  5
270
330
1F
100
AcDbEntity
  8
0
  6
Continuous
 62
     7
370
    25
100
AcDbLine
 10
282.2313132125
 20
177.390511737
 30
0.0
 11
282.2313132125
 21
177.4558350019
 31
0.0
  0
ARC
  5
271
330
1F
100
AcDbEntity
  8
0
  6
Continuous
 62
     7
370
    25
100
AcDbCircle
 10
282.159206571
 20
177.2414962994
 30
0.0
 40
0.1655444604895893
100
AcDbArc
 50
20.9592344766
 51
64.1782610916
  0
LINE
  5
272
330
1F
100
AcDbEntity
  8
0
  6
Continuous
 62
     7
370
    25
100
AcDbLine
 10
253.9470419651
 20
193.7839972384
 30
0.0
 11
253.9470419651
 21
193.7186739735
 31
0.0
  0
LINE
  5
273
330
1F
100
AcDbEntity
  8
0
  6
Continuous
 62
     7
370
    25
100
AcDbLine
 10
282.2313132125
 20
177.390511737
 30
0.0
 11
253.9470419651
 21
193.7186739735
 31
0.0
  0
ARC
  5
274
330
1F
100
AcDbEntity
  8
0
  6
Continuous
 62
     7
370
    25
100
AcDbCircle
 10
289.1901575775
 20
177.5229542291
 30
0.0
 40
0.1005878556986941
100
AcDbArc
 50
294.3746582935
 51
354.3052007488
  0
LINE
  5
275
330
1F
100
AcDbEntity
  8
0
  6
Continuous
 62
     7
370
    25
100
AcDbLine
 10
227.6426697049
 20
178.843728792
 30
0.0
 11
227.6426697049
 21
178.7784055271
 31
0.0
  0
ARC
  5
276
330
1F
100
AcDbEntity
  8
0
  6
Continuous
 62
     7
370
    25
100
AcDbCircle
 10
227.7147763464
 20
178.6293900895
 30
0.0
 40
0.165544460486572
100
AcDbArc
 50
115.8217389082
 51
159.0407655272
  0
LINE
  5
277
330
1F
100
AcDbEntity
  8
0
  6
Continuous
 62
     7
370
    25
100
AcDbLine
 10
253.5227778964
 20
193.7186739735
 30
0.0
 11
253.5227778964
 21
193.7839972384
 31
0.0
  0
LINE
  5
278
330
1F
100
AcDbEntity
  8
0
  6
Continuous
 62
     7
370
    25
100
AcDbLine
 10
253.5227778964
 20
193.7186739735
 30
0.0
 11
227.6426697049
 21
178.7784055271
 31
0.0
  0
ARC
  5
279
330
1F
100
AcDbEntity
  8
0
  6
Continuous
 62
     7
370
    25
100
AcDbCircle
 10
221.9566175461
 20
179.1557704528
 30
0.0
 40
0.1005878556986688
100
AcDbArc
 50
185.6947992512
 51
245.6253417064
  0
LINE
  5
27A
330
1F
100
AcDbEntity
  8
0
  6
Continuous
 62
     7
370
    25
100
AcDbLine
 10
231.9100591294
 20
182.0134332862
 30
0.0
 11
231.9100591294
 21
181.9481100212
 31
0.0
  0
LINE
  5
27B
330
1F
100
AcDbEntity
  8
0
  6
Continuous
 62
     7
370
    25
100
AcDbLine
 10
230.7433421351
 20
181.274578637
 30
0.0
 11
231.9100591294
 21
181.9481100212
 31
0.0
  0
LINE
  5
27C
330
1F
100
AcDbEntity
  8
0
  6
Continuous
 62
     7
370
    25
100
AcDbLine
 10
231.9100591294
 20
181.9481100212
 30
0.0
 11
231.9807606128
 21
181.9072949236
 31
0.0
  0
LWPOLYLINE
  5
27D
330
1F
100
AcDbEntity
  8
0
  6
Continuous
 62
     7
370
    25
100
AcDbPolyline
 90
        7
 70
   128
 43
0.0
 10
279.62208919
 20
182.4971444764
 10
279.5539602867
 20
182.523423928
 10
279.4735967659
 20
182.5326520442
 10
279.3932332451
 20
182.523423928
 10
279.3251043419
 20
182.4971444764
 10
279.2795820641
 20
182.4578144978
 10
279.2713618539
 20
182.4440832572
  0
LWPOLYLINE
  5
27E
330
1F
100
AcDbEntity
  8
0
  6
Continuous
 62
     7
370
    25
100
AcDbPolyline
 90
        3
 70
   128
 43
0.0
 10
279.6758316779
 20
182.4440832572
 10
279.6676114677
 20
182.4578144978
 10
279.62208919
 20
182.4971444764
  0
LWPOLYLINE
  5
27F
330
1F
100
AcDbEntity
  8
0
  6
Continuous
 62
     7
370
    25
100
AcDbPolyline
 90
        7
 70
   128
 43
0.0
 10
231.1145640006
 20
183.7217566442
 10
231.0464350973
 20
183.7480360958
 10
230.9660715765
 20
183.757264212
 10
230.8857080557
 20
183.7480360958
 10
230.8175791525
 20
183.7217566442
 10
230.7720568747
 20
183.6824266655
 10
230.7638366645
 20
183.6686954249
  0
LWPOLYLINE
  5
280
330
1F
100
AcDbEntity
  8
0
  6
Continuous
 62
     7
370
    25
100
AcDbPolyline
 90
        3
 70
   128
 43
0.0
 10
231.1683064886
 20
183.6686954249
 10
231.1600862783
 20
183.6824266655
 10
231.1145640006
 20
183.7217566442
  0
LINE
  5
281
330
1F
100
AcDbEntity
  8
0
  6
Continuous
 62
     7
370
    25
100
AcDbLine
 10
248.1735150967
 20
191.4021265721
 30
0.0
 11
248.1735150967
 21
191.3368033072
 31
0.0
  0
LINE
  5
282
330
1F
100
AcDbEntity
  8
0
  6
Continuous
 62
     7
370
    25
100
AcDbLine
 10
247.0067981024
 20
190.6632719229
 30
0.0
 11
248.1735150967
 21
191.3368033072
 31
0.0
  0
LINE
  5
283
330
1F
100
AcDbEntity
  8
0
  6
Continuous
 62
     7
370
    25
100
AcDbLine
 10
248.1735150967
 20
191.3368033072
 30
0.0
 11
248.2442165801
 21
191.2959882096
 31
0.0
  0
LWPOLYLINE
  5
284
330
1F
100
AcDbEntity
  8
0
  6
Continuous
 62
     7
370
    25
100
AcDbPolyline
 90
        7
 70
   128
 43
0.0
 10
262.7929477977
 20
192.2124010071
 10
262.7248188945
 20
192.2386804587
 10
262.6444553737
 20
192.2479085749
 10
262.5640918529
 20
192.2386804587
 10
262.4959629496
 20
192.2124010071
 10
262.4504406718
 20
192.1730710285
 10
262.4422204616
 20
192.1593397879
  0
LWPOLYLINE
  5
285
330
1F
100
AcDbEntity
  8
0
  6
Continuous
 62
     7
370
    25
100
AcDbPolyline
 90
        3
 70
   128
 43
0.0
 10
262.8466902857
 20
192.1593397879
 10
262.8384700755
 20
192.1730710285
 10
262.7929477977
 20
192.2124010071
  0
LWPOLYLINE
  5
286
330
1F
100
AcDbEntity
  8
0
  6
Continuous
 62
     7
370
    25
100
AcDbPolyline
 90
        7
 70
   128
 43
0.0
 10
246.5294918304
 20
192.620605063
 10
246.4613629272
 20
192.6468845146
 10
246.3809994064
 20
192.6561126308
 10
246.3006358856
 20
192.6468845146
 10
246.2325069823
 20
192.620605063
 10
246.1869847045
 20
192.5812750844
 10
246.1787644943
 20
192.5675438438
  0
LWPOLYLINE
  5
287
330
1F
100
AcDbEntity
  8
0
  6
Continuous
 62
     7
370
    25
100
AcDbPolyline
 90
        3
 70
   128
 43
0.0
 10
246.5832343184
 20
192.5675438438
 10
246.5750141082
 20
192.5812750844
 10
246.5294918304
 20
192.620605063
  0
ARC
  5
288
330
1F
100
AcDbEntity
  8
0
  6
Continuous
 62
     7
370
    25
100
AcDbCircle
 10
253.7349099307
 20
193.309260648
 30
0.0
 40
0.4611065723736781
100
AcDbArc
 50
62.6096722366
 51
117.3903277634
  0
ENDSEC
  0
SECTION
  2
OBJECTS
  0
DICTIONARY
  5
C
330
0
100
AcDbDictionary
281
     1
  3
ACAD_GROUP
350
D
  3
ACAD_LAYOUT
350
1A
  3
ACAD_MLINESTYLE
350
17
  3
ACAD_PLOTSETTINGS
350
19
  3
ACAD_PLOTSTYLENAME
350
E
  3
ACAD_SCALELIST
350
47
  3
DWGPROPS
350
289
  0
DICTIONARY
  5
D
102
{ACAD_REACTORS
330
C
102
}
330
C
100
AcDbDictionary
281
     1
  0
DICTIONARY
  5
1A
102
{ACAD_REACTORS
330
C
102
}
330
C
100
AcDbDictionary
281
     1
  3
Layout1
350
1E
  3
Layout2
350
26
  3
Model
350
22
  0
DICTIONARY
  5
17
102
{ACAD_REACTORS
330
C
102
}
330
C
100
AcDbDictionary
281
     1
  3
Standard
350
18
  0
DICTIONARY
  5
19
102
{ACAD_REACTORS
330
C
102
}
330
C
100
AcDbDictionary
281
     1
  0
ACDBDICTIONARYWDFLT
  5
E
102
{ACAD_REACTORS
330
C
102
}
330
C
100
AcDbDictionary
281
     1
  3
Normal
350
F
100
AcDbDictionaryWithDefault
340
F
  0
DICTIONARY
  5
47
102
{ACAD_REACTORS
330
C
102
}
330
C
100
AcDbDictionary
281
     1
  3
A0
350
48
  3
A1
350
49
  3
A2
350
4A
  3
A3
350
4B
  3
A4
350
4C
  3
A5
350
4D
  3
A6
350
4E
  3
A7
350
4F
  3
A8
350
50
  3
A9
350
51
  3
B0
350
52
  3
B1
350
53
  3
B2
350
54
  3
B3
350
55
  3
B4
350
56
  3
B5
350
57
  3
B6
350
58
  3
B7
350
59
  3
B8
350
5A
  3
B9
350
5B
  3
C0
350
5C
  3
C1
350
5D
  3
C2
350
5E
  3
C3
350
5F
  3
C4
350
60
  3
C5
350
61
  3
C6
350
62
  3
C7
350
63
  3
C8
350
64
  3
C9
350
65
  3
D0
350
66
  3
D1
350
67
  3
D2
350
68
  0
XRECORD
  5
289
102
{ACAD_REACTORS
330
C
102
}
330
C
100
AcDbXrecord
280
     1
  1
DWGPROPS COOKIE
  2

  3

  4

  6

  7

  8
Adeel
  9

300
=
301
=
302
=
303
=
304
=
305
=
306
=
307
=
308
=
309
=
 40
0.0
 41
2459863.931937442
 42
2459863.931941933
  1

 90
        0
  0
LAYOUT
  5
1E
102
{ACAD_REACTORS
330
1A
102
}
330
1A
100
AcDbPlotSettings
  1

  2
none_device
  4

  6

 40
0.0
 41
0.0
 42
0.0
 43
0.0
 44
0.0
 45
0.0
 46
0.0
 47
0.0
 48
0.0
 49
0.0
140
0.0
141
0.0
142
1.0
143
1.0
 70
   688
 72
     1
 73
     0
 74
     5
  7

 75
    16
147
1.0
148
0.0
149
0.0
100
AcDbLayout
  1
Layout1
 70
     1
 71
     1
 10
0.0
 20
0.0
 11
420.0
 21
297.0
 12
0.0
 22
0.0
 32
0.0
 14
1.0000000000E+20
 24
1.0000000000E+20
 34
1.0000000000E+20
 15
-1.0000000000E+20
 25
-1.0000000000E+20
 35
-1.0000000000E+20
146
0.0
 13
0.0
 23
0.0
 33
0.0
 16
1.0
 26
0.0
 36
0.0
 17
0.0
 27
1.0
 37
0.0
 76
     0
330
1B
  0
LAYOUT
  5
26
102
{ACAD_REACTORS
330
1A
102
}
330
1A
100
AcDbPlotSettings
  1

  2
none_device
  4

  6

 40
0.0
 41
0.0
 42
0.0
 43
0.0
 44
0.0
 45
0.0
 46
0.0
 47
0.0
 48
0.0
 49
0.0
140
0.0
141
0.0
142
1.0
143
1.0
 70
   688
 72
     1
 73
     0
 74
     5
  7

 75
    16
147
1.0
148
0.0
149
0.0
100
AcDbLayout
  1
Layout2
 70
     1
 71
     2
 10
0.0
 20
0.0
 11
0.0
 21
0.0
 12
0.0
 22
0.0
 32
0.0
 14
0.0
 24
0.0
 34
0.0
 15
0.0
 25
0.0
 35
0.0
146
0.0
 13
0.0
 23
0.0
 33
0.0
 16
1.0
 26
0.0
 36
0.0
 17
0.0
 27
1.0
 37
0.0
 76
     0
330
23
  0
LAYOUT
  5
22
102
{ACAD_REACTORS
330
1A
102
}
330
1A
100
AcDbPlotSettings
  1

  2
none_device
  4
Letter_(8.50_x_11.00_Inches)
  6

 40
6.35
 41
6.35
 42
6.35000508
 43
6.35000508
 44
215.9
 45
279.4
 46
0.0
 47
0.0
 48
0.0
 49
0.0
140
0.0
141
0.0
142
1.0
143
1.0
 70
  1712
 72
     1
 73
     0
 74
     0
  7

 75
     0
147
1.0
148
0.0
149
0.0
100
AcDbLayout
  1
Model
 70
     1
 71
     0
 10
0.0
 20
0.0
 11
297.0
 21
210.0
 12
0.0
 22
0.0
 32
0.0
 14
0.0
 24
0.0
 34
0.0
 15
297.0
 25
210.0
 35
0.0
146
0.0
 13
0.0
 23
0.0
 33
0.0
 16
1.0
 26
0.0
 36
0.0
 17
0.0
 27
1.0
 37
0.0
 76
     0
330
1F
331
29
  0
MLINESTYLE
  5
18
102
{ACAD_REACTORS
330
17
102
}
330
17
100
AcDbMlineStyle
  2
Standard
 70
     0
  3

 62
   256
 51
90.0
 52
90.0
 71
     2
 49
0.5
 62
   256
  6
BYLAYER
 49
-0.5
 62
   256
  6
BYLAYER
  0
ACDBPLACEHOLDER
  5
F
102
{ACAD_REACTORS
330
E
102
}
330
E
  0
SCALE
  5
48
102
{ACAD_REACTORS
330
47
102
}
330
47
100
AcDbScale
 70
     0
300
1:1
140
1.0
141
1.0
290
     1
  0
SCALE
  5
49
102
{ACAD_REACTORS
330
47
102
}
330
47
100
AcDbScale
 70
     0
300
1:2
140
1.0
141
2.0
290
     0
  0
SCALE
  5
4A
102
{ACAD_REACTORS
330
47
102
}
330
47
100
AcDbScale
 70
     0
300
1:4
140
1.0
141
4.0
290
     0
  0
SCALE
  5
4B
102
{ACAD_REACTORS
330
47
102
}
330
47
100
AcDbScale
 70
     0
300
1:5
140
1.0
141
5.0
290
     0
  0
SCALE
  5
4C
102
{ACAD_REACTORS
330
47
102
}
330
47
100
AcDbScale
 70
     0
300
1:8
140
1.0
141
8.0
290
     0
  0
SCALE
  5
4D
102
{ACAD_REACTORS
330
47
102
}
330
47
100
AcDbScale
 70
     0
300
1:10
140
1.0
141
10.0
290
     0
  0
SCALE
  5
4E
102
{ACAD_REACTORS
330
47
102
}
330
47
100
AcDbScale
 70
     0
300
1:16
140
1.0
141
16.0
290
     0
  0
SCALE
  5
4F
102
{ACAD_REACTORS
330
47
102
}
330
47
100
AcDbScale
 70
     0
300
1:20
140
1.0
141
20.0
290
     0
  0
SCALE
  5
50
102
{ACAD_REACTORS
330
47
102
}
330
47
100
AcDbScale
 70
     0
300
1:30
140
1.0
141
30.0
290
     0
  0
SCALE
  5
51
102
{ACAD_REACTORS
330
47
102
}
330
47
100
AcDbScale
 70
     0
300
1:40
140
1.0
141
40.0
290
     0
  0
SCALE
  5
52
102
{ACAD_REACTORS
330
47
102
}
330
47
100
AcDbScale
 70
     0
300
1:50
140
1.0
141
50.0
290
     0
  0
SCALE
  5
53
102
{ACAD_REACTORS
330
47
102
}
330
47
100
AcDbScale
 70
     0
300
1:100
140
1.0
141
100.0
290
     0
  0
SCALE
  5
54
102
{ACAD_REACTORS
330
47
102
}
330
47
100
AcDbScale
 70
     0
300
2:1
140
2.0
141
1.0
290
     0
  0
SCALE
  5
55
102
{ACAD_REACTORS
330
47
102
}
330
47
100
AcDbScale
 70
     0
300
4:1
140
4.0
141
1.0
290
     0
  0
SCALE
  5
56
102
{ACAD_REACTORS
330
47
102
}
330
47
100
AcDbScale
 70
     0
300
8:1
140
8.0
141
1.0
290
     0
  0
SCALE
  5
57
102
{ACAD_REACTORS
330
47
102
}
330
47
100
AcDbScale
 70
     0
300
10:1
140
10.0
141
1.0
290
     0
  0
SCALE
  5
58
102
{ACAD_REACTORS
330
47
102
}
330
47
100
AcDbScale
 70
     0
300
100:1
140
100.0
141
1.0
290
     0
  0
SCALE
  5
59
102
{ACAD_REACTORS
330
47
102
}
330
47
100
AcDbScale
 70
     0
300
1/128" = 1'-0"
140
0.0078125
141
12.0
290
     0
  0
SCALE
  5
5A
102
{ACAD_REACTORS
330
47
102
}
330
47
100
AcDbScale
 70
     0
300
1/64" = 1'-0"
140
0.015625
141
12.0
290
     0
  0
SCALE
  5
5B
102
{ACAD_REACTORS
330
47
102
}
330
47
100
AcDbScale
 70
     0
300
1/32" = 1'-0"
140
0.03125
141
12.0
290
     0
  0
SCALE
  5
5C
102
{ACAD_REACTORS
330
47
102
}
330
47
100
AcDbScale
 70
     0
300
1/16" = 1'-0"
140
0.0625
141
12.0
290
     0
  0
SCALE
  5
5D
102
{ACAD_REACTORS
330
47
102
}
330
47
100
AcDbScale
 70
     0
300
3/32" = 1'-0"
140
0.09375
141
12.0
290
     0
  0
SCALE
  5
5E
102
{ACAD_REACTORS
330
47
102
}
330
47
100
AcDbScale
 70
     0
300
1/8" = 1'-0"
140
0.125
141
12.0
290
     0
  0
SCALE
  5
5F
102
{ACAD_REACTORS
330
47
102
}
330
47
100
AcDbScale
 70
     0
300
3/16" = 1'-0"
140
0.1875
141
12.0
290
     0
  0
SCALE
  5
60
102
{ACAD_REACTORS
330
47
102
}
330
47
100
AcDbScale
 70
     0
300
1/4" = 1'-0"
140
0.25
141
12.0
290
     0
  0
SCALE
  5
61
102
{ACAD_REACTORS
330
47
102
}
330
47
100
AcDbScale
 70
     0
300
3/8" = 1'-0"
140
0.375
141
12.0
290
     0
  0
SCALE
  5
62
102
{ACAD_REACTORS
330
47
102
}
330
47
100
AcDbScale
 70
     0
300
1/2" = 1'-0"
140
0.5
141
12.0
290
     0
  0
SCALE
  5
63
102
{ACAD_REACTORS
330
47
102
}
330
47
100
AcDbScale
 70
     0
300
3/4" = 1'-0"
140
0.75
141
12.0
290
     0
  0
SCALE
  5
64
102
{ACAD_REACTORS
330
47
102
}
330
47
100
AcDbScale
 70
     0
300
1" = 1'-0"
140
1.0
141
12.0
290
     0
  0
SCALE
  5
65
102
{ACAD_REACTORS
330
47
102
}
330
47
100
AcDbScale
 70
     0
300
1-1/2" = 1'-0"
140
1.5
141
12.0
290
     0
  0
SCALE
  5
66
102
{ACAD_REACTORS
330
47
102
}
330
47
100
AcDbScale
 70
     0
300
3" = 1'-0"
140
3.0
141
12.0
290
     0
  0
SCALE
  5
67
102
{ACAD_REACTORS
330
47
102
}
330
47
100
AcDbScale
 70
     0
300
6" = 1'-0"
140
6.0
141
12.0
290
     0
  0
SCALE
  5
68
102
{ACAD_REACTORS
330
47
102
}
330
47
100
AcDbScale
 70
     0
300
1'-0" = 1'-0"
140
12.0
141
12.0
290
     0
  0
ENDSEC
  0
EOF
